<svg width="88" height="24" viewBox="0 0 88 24" fill="none" xmlns="http://www.w3.org/2000/svg">
<path d="M70.1656 18.8763H72.0051C72.4408 18.8763 72.8179 18.9486 73.1366 19.0933C73.4553 19.2338 73.8204 19.4387 73.9898 19.7078C74.1632 19.9729 74.25 20.2863 74.25 20.6478C74.25 21.1378 74.137 21.5676 73.9111 21.9372C73.6893 22.3067 73.3786 22.5919 72.9793 22.7928C72.5799 22.9936 72.1221 23.094 71.6057 23.094H69.4395L70.1656 18.8763ZM71.642 22.142C71.9325 22.142 72.1826 22.0818 72.3924 21.9613C72.6061 21.8368 72.7675 21.668 72.8764 21.4552C72.9853 21.2382 73.0398 20.9932 73.0398 20.7201C73.0398 20.4349 72.951 20.216 72.7736 20.0633C72.5961 19.9067 72.3359 19.8283 71.993 19.8283H71.2911L70.8312 22.142H71.642Z" fill="#BDBDBD"/>
<path d="M76.7258 23.1784C76.2982 23.1784 75.9251 23.1 75.6064 22.9434C75.2917 22.7867 75.0477 22.5678 74.8742 22.2866C74.7048 22.0055 74.6201 21.6841 74.6201 21.3226C74.6201 20.8406 74.731 20.4068 74.9529 20.0211C75.1788 19.6355 75.2726 19.451 75.7698 19.1174C76.1732 18.9004 76.631 18.792 77.1433 18.792C77.5709 18.792 77.942 18.8703 78.2567 19.027C78.5753 19.1836 78.897 19.3305 79.1098 19.6837C79.3227 20.037 79.37 20.2863 79.37 20.6478C79.37 21.1298 79.2571 21.5636 79.0312 21.9492C78.8093 22.3348 78.4967 22.6361 78.0933 22.853C77.6939 23.0699 77.2381 23.1784 76.7258 23.1784ZM76.8287 22.1902C77.0949 22.1902 77.3289 22.124 77.5306 21.9914C77.7323 21.8588 77.8876 21.6821 77.9965 21.4612C78.1054 21.2362 78.1599 20.9892 78.1599 20.7201C78.1599 20.4349 78.0711 20.2079 77.8936 20.0392C77.7202 19.8665 77.4761 19.7801 77.1615 19.7801C76.8952 19.7801 76.6613 19.8464 76.4596 19.979C76.2579 20.1115 76.1026 20.2903 75.9936 20.5152C75.8847 20.7361 75.8303 20.9812 75.8303 21.2503C75.8303 21.5355 75.917 21.7644 76.0905 21.9372C76.268 22.1059 76.514 22.1902 76.8287 22.1902Z" fill="#BDBDBD"/>
<path d="M82.073 18.8763C82.6216 18.8763 83.0451 18.9948 83.3436 19.2318C83.6421 19.4688 83.9124 19.8022 83.9124 20.232C83.9124 20.5855 83.8257 20.8948 83.6522 21.1599C83.4828 21.425 83.2388 21.6299 82.9201 21.7745C82.6054 21.9191 82.2383 21.9914 81.8188 21.9914H80.9717L80.7539 23.094H79.5558L80.2819 18.8763H82.073ZM81.8733 21.0515C82.1395 21.0515 82.3432 20.9892 82.4844 20.8647C82.6296 20.7402 82.7022 20.5634 82.7022 20.3345C82.7022 20.1617 82.6438 20.0332 82.5268 19.9488C82.4138 19.8605 82.2504 19.8163 82.0366 19.8163H81.4074L81.1593 21.0515H81.8733Z" fill="#BDBDBD"/>
<path d="M85.7975 19.7982L85.6583 20.5092H87.5401L87.3647 21.4009H85.4768L85.3255 22.1722H87.5462L87.3526 23.094H83.958L84.6841 18.8763H88L87.9334 19.7982H85.7975Z" fill="#BDBDBD"/>
<path d="M70.5365 16.4086C70.199 16.3129 69.8905 16.1817 69.611 16.0148C69.3316 15.8479 69.115 15.6738 68.9613 15.4924L69.6604 14.7634C69.8285 14.953 70.019 15.1155 70.2319 15.251C70.4459 15.3827 70.6693 15.4815 70.9021 15.5474C71.1233 15.6101 71.3028 15.6276 71.4408 15.5998C71.5837 15.5693 71.6712 15.4981 71.7032 15.386C71.7308 15.2894 71.6961 15.1982 71.599 15.1122C71.5058 15.0273 71.3517 14.921 71.1365 14.7932C70.8926 14.6489 70.6932 14.5173 70.5385 14.3983C70.3849 14.2754 70.2651 14.1224 70.179 13.9393C70.0968 13.7573 70.0899 13.5466 70.1583 13.307C70.2411 13.0173 70.393 12.7867 70.6139 12.6155C70.8359 12.4403 71.1115 12.3346 71.4405 12.2984C71.7696 12.2622 72.1321 12.3002 72.5278 12.4123C72.8188 12.4947 73.0816 12.6026 73.3161 12.7359C73.5517 12.8653 73.7447 13.0119 73.895 13.1756L73.2326 13.9087C73.1022 13.7632 72.9472 13.6378 72.7676 13.5327C72.5929 13.4247 72.4047 13.3421 72.2029 13.285C71.974 13.2201 71.7831 13.2057 71.6302 13.2417C71.4812 13.2788 71.3902 13.3554 71.357 13.4713C71.3283 13.5717 71.3625 13.6649 71.4596 13.7509C71.5566 13.8369 71.7147 13.9443 71.9337 14.0732C72.1787 14.2136 72.3767 14.3428 72.5275 14.4607C72.6822 14.5797 72.8013 14.7283 72.8846 14.9064C72.9679 15.0845 72.9764 15.2895 72.9102 15.5213C72.8285 15.8072 72.6747 16.0372 72.4488 16.2112C72.2279 16.3825 71.951 16.4857 71.618 16.5208C71.2889 16.557 70.9284 16.5196 70.5365 16.4086Z" fill="#BDBDBD"/>
<path d="M74.9856 17.6692C74.5743 17.5527 74.2369 17.3756 73.9735 17.1381C73.7139 16.9017 73.5393 16.6246 73.4498 16.3069C73.3641 15.9903 73.371 15.6581 73.4703 15.3104C73.6028 14.8468 73.8287 14.4598 74.1481 14.1494C74.4714 13.84 74.8549 13.6355 75.2986 13.5357C75.7462 13.437 76.2164 13.4575 76.7091 13.5971C77.1204 13.7136 77.4558 13.8901 77.7154 14.1265C77.9788 14.364 78.1534 14.6411 78.2391 14.9577C78.3286 15.2754 78.3237 15.6081 78.2244 15.9559C78.0919 16.4195 77.864 16.8059 77.5407 17.1153C77.2214 17.4257 76.8379 17.6303 76.3903 17.729C75.9465 17.8287 75.4783 17.8088 74.9856 17.6692ZM75.3561 16.7468C75.6122 16.8194 75.8554 16.8194 76.0858 16.7469C76.3163 16.6744 76.5142 16.5467 76.6797 16.3639C76.8463 16.1772 76.9666 15.9544 77.0405 15.6956C77.1189 15.4213 77.0959 15.1788 76.9716 14.9682C76.8522 14.7548 76.6412 14.6052 76.3386 14.5194C76.0825 14.4469 75.8393 14.4469 75.6088 14.5194C75.3784 14.5919 75.1799 14.7215 75.0133 14.9082C74.8479 15.091 74.7281 15.3118 74.6542 15.5707C74.5758 15.845 74.5963 16.0888 74.7156 16.3022C74.84 16.5129 75.0535 16.6611 75.3561 16.7468Z" fill="#BDBDBD"/>
<path d="M65.9998 18.2801C66.0094 18.2821 66.0174 18.2843 66.0268 18.287C66.0965 18.3069 66.166 18.3163 66.1978 18.2522L71.392 3.94881C71.4035 3.8956 71.4033 3.86737 71.3868 3.84883C71.3711 3.83118 71.3456 3.82731 71.3224 3.8229L67.956 3.18265C67.8714 3.17085 67.8099 3.15553 67.7791 3.24367L63.0138 17.4376C62.9739 17.5563 63.0249 17.6507 63.1472 17.6776C63.7955 17.8199 65.819 18.2424 65.9998 18.2801Z" fill="#BDBDBD"/>
<path d="M53.8465 3.26325C53.6862 3.26325 53.5491 3.3785 53.5215 3.53644L50.1481 22.8516C50.1129 23.0534 50.2682 23.2383 50.4732 23.2383H53.2165C53.3783 23.2383 53.5162 23.1209 53.5421 22.9612L54.9502 14.293C55.0127 13.908 55.5739 13.9309 55.6048 14.3197L56.2896 22.9345C56.3032 23.106 56.4464 23.2383 56.6185 23.2383H60.6989C60.8596 23.2383 60.997 23.1224 61.0241 22.964L64.3282 3.65246C64.3628 3.44971 64.2056 3.26498 63.9999 3.26687L61.313 3.29148C61.1532 3.29294 61.0174 3.40872 60.9907 3.56629L59.5631 11.9882C59.4982 12.3712 58.9401 12.3467 58.9089 11.9595L58.2339 3.56676C58.2201 3.39534 58.077 3.26325 57.905 3.26325H53.8465Z" fill="#BDBDBD"/>
<path d="M41.5833 3.26325C41.422 3.26325 41.2844 3.37974 41.2578 3.53874L38.0249 22.8539C37.9912 23.055 38.1463 23.2383 38.3503 23.2383H41.0993C41.2598 23.2383 41.3971 23.1227 41.4244 22.9645L42.9429 14.1786C43.0089 13.7963 43.5662 13.8219 43.5969 14.2087L44.2906 22.9345C44.3042 23.106 44.4474 23.2383 44.6195 23.2383H48.6998C48.8606 23.2383 48.998 23.1224 49.0251 22.964L52.3291 3.65243C52.3638 3.44969 52.2066 3.26497 52.0009 3.26684L49.2903 3.29149C49.1303 3.29295 48.9943 3.40909 48.9679 3.56698L47.5624 11.9649C47.4982 12.3485 46.9393 12.3246 46.9081 11.9369L46.2349 3.56676C46.2211 3.39534 46.0779 3.26325 45.906 3.26325H41.5833Z" fill="#BDBDBD"/>
<path d="M25.7112 3.26363C25.5699 3.26318 25.444 3.35278 25.3981 3.48644L18.7788 22.7668C18.7051 22.9816 18.8652 23.2048 19.0922 23.2039L21.8299 23.1928C21.968 23.1923 22.0912 23.1058 22.1386 22.976L26.0146 12.3605C26.1438 12.0066 26.6696 12.1107 26.6542 12.4871L26.2273 22.8948C26.2197 23.0822 26.3695 23.2383 26.557 23.2383H29.8048C29.9353 23.2383 30.0536 23.1613 30.1065 23.042L34.4182 13.3096C34.5746 12.9564 35.1063 13.1135 35.0458 13.4949L33.5651 22.8254C33.5334 23.0248 33.6866 23.2055 33.8884 23.2071L36.6803 23.2285C36.8415 23.2297 36.98 23.1143 37.0078 22.9555L40.3903 3.65098C40.4257 3.44865 40.2697 3.26345 40.0643 3.26407L35.4683 3.27793C35.3383 3.27832 35.2206 3.35501 35.1678 3.47379L30.5591 13.8355C30.4104 14.1699 29.909 14.0496 29.9281 13.6841L30.4563 3.62474C30.4662 3.43638 30.3164 3.27807 30.1278 3.27748L25.7112 3.26363Z" fill="#BDBDBD"/>
<path fill-rule="evenodd" clip-rule="evenodd" d="M14.4225 20.2603C14.2426 20.2638 14.0931 20.1225 14.0864 19.9428L13.3625 0.636122C13.3555 0.448307 13.5065 0.292553 13.6944 0.293806L16.6566 0.313563C16.8338 0.314744 16.9784 0.455621 16.9842 0.632691L17.1102 4.47191C17.116 4.64837 17.2597 4.78901 17.4362 4.79102L20.243 4.82304C20.3836 4.82464 20.5098 4.73696 20.5573 4.60463L22.0277 0.510476C22.075 0.378935 22.2 0.291429 22.3397 0.292049L25.2088 0.30476C25.4364 0.305768 25.5946 0.531382 25.5181 0.745683L18.6547 19.9657C18.6085 20.0948 18.4874 20.182 18.3503 20.1846L14.4225 20.2603ZM18.6927 8.53274C18.9193 8.53274 19.0784 8.7559 19.0047 8.97014L17.9893 11.9183C17.8703 12.2639 17.361 12.1882 17.3476 11.8229L17.2398 8.87476C17.2329 8.68792 17.3825 8.53274 17.5695 8.53274H18.6927Z" fill="#BDBDBD"/>
<path fill-rule="evenodd" clip-rule="evenodd" d="M3.68133 3.31793C3.51974 3.31691 3.38118 3.43307 3.35399 3.59236L0.0661074 22.8516C0.0316065 23.0537 0.187816 23.238 0.392832 23.2371L10.3069 23.1929C11.7098 23.1571 12.7037 22.4183 12.922 21.369C13.1403 20.3199 12.5795 6.27347 12.5792 6.26564C12.5792 6.2654 12.5792 6.26551 12.5791 6.26527C12.4757 3.81418 10.6413 3.39211 9.98226 3.35774L3.68133 3.31793ZM4.56416 19.538C4.35835 19.5425 4.19873 19.3594 4.23114 19.1561L6.1397 7.18578C6.16527 7.0254 6.30375 6.90747 6.46615 6.90777L7.51992 6.90969C8.18718 6.90829 9.06122 6.90646 9.15325 7.51879L9.29368 14.5053C9.31814 17.0336 9.32232 19.0865 9.30693 19.2397C9.30231 19.2858 9.29137 19.4389 9.12233 19.4389L4.56416 19.538Z" fill="#BDBDBD"/>
<ellipse rx="1.88864" ry="2.10123" transform="matrix(0.840433 0.541916 -0.545163 0.83833 64.9626 21.1708)" fill="#BDBDBD"/>
</svg>
