<svg width="161" height="20" viewBox="0 0 161 20" fill="none" xmlns="http://www.w3.org/2000/svg">
<path d="M4.01944 14.7236C4.16872 14.5779 4.37398 14.4929 4.59169 14.4929H24.3343C24.695 14.4929 24.8754 14.9178 24.6204 15.1666L20.7204 18.9722C20.5711 19.1179 20.3659 19.2029 20.1482 19.2029H0.40556C0.0447946 19.2029 -0.135588 18.778 0.119436 18.5292L4.01944 14.7236Z" fill="#BDBDBD"/>
<path d="M4.01944 0.514822C4.17494 0.369153 4.3802 0.28418 4.59169 0.28418H24.3343C24.695 0.28418 24.8754 0.709046 24.6204 0.957897L20.7204 4.76349C20.5711 4.90916 20.3659 4.99413 20.1482 4.99413H0.40556C0.0447946 4.99413 -0.135588 4.56926 0.119436 4.32041L4.01944 0.514822Z" fill="#BDBDBD"/>
<path d="M20.7204 7.57368C20.5711 7.42801 20.3659 7.34303 20.1482 7.34303H0.40556C0.0447946 7.34303 -0.135588 7.7679 0.119436 8.01675L4.01944 11.8223C4.16872 11.968 4.37398 12.053 4.59169 12.053H24.3343C24.695 12.053 24.8754 11.6281 24.6204 11.3793L20.7204 7.57368Z" fill="#BDBDBD"/>
<path d="M53.7612 4.07028V0.28418H39.4122C38.9186 0.28418 38.4298 0.381425 37.9738 0.570358C37.5178 0.759291 37.1034 1.03621 36.7545 1.3853C36.4055 1.73438 36.1288 2.14879 35.94 2.60486C35.7513 3.06092 35.6542 3.5497 35.6544 4.04327V7.88002C35.6544 8.87654 36.0504 9.83225 36.7551 10.5369C37.4598 11.2416 38.4156 11.6374 39.4122 11.6374H50.7884V15.4201H35.9178V19.2029H50.8154C51.8116 19.2024 52.7669 18.8066 53.4714 18.1025C54.176 17.3983 54.5723 16.4433 54.5731 15.4472V11.6104C54.5731 10.6139 54.1772 9.65818 53.4725 8.95353C52.7678 8.24888 51.812 7.85301 50.8154 7.85301H39.4375V4.07028H53.7612Z" fill="#BDBDBD"/>
<path d="M57.4837 4.04327V15.4472C57.4833 15.9405 57.5801 16.4291 57.7686 16.8849C57.9571 17.3408 58.2336 17.755 58.5823 18.1038C58.931 18.4527 59.345 18.7293 59.8006 18.9179C60.2563 19.1065 60.7447 19.2033 61.2378 19.2029H72.6467C73.6423 19.2024 74.5971 18.8066 75.3013 18.1025C76.0055 17.3983 76.4015 16.4433 76.4024 15.4472V4.04327C76.4031 3.54958 76.3064 3.0606 76.1179 2.60433C75.9294 2.14807 75.6528 1.73348 75.304 1.3843C74.9551 1.03513 74.5408 0.758228 74.0849 0.569453C73.6289 0.380677 73.1402 0.283737 72.6467 0.284181H61.2378C60.7447 0.283959 60.2565 0.380953 59.8009 0.569617C59.3453 0.758281 58.9314 1.03492 58.5828 1.38371C58.2341 1.73251 57.9576 2.14662 57.769 2.60239C57.5805 3.05815 57.4835 3.54663 57.4837 4.0399V4.04327ZM72.6113 15.4201H61.2665V4.07028H72.6113V15.4201Z" fill="#BDBDBD"/>
<path d="M97.5139 4.04057V19.2029H101.211V12.9867H112.018V19.2029H115.695V4.04057C115.696 3.54697 115.601 3.05814 115.417 2.60211C115.233 2.14609 114.963 1.73187 114.622 1.38324C114.282 1.03373 113.878 0.757095 113.434 0.569499C112.989 0.38065 112.512 0.28369 112.031 0.284182H101.168C100.687 0.283738 100.21 0.380586 99.7657 0.569184C99.3211 0.757783 98.9171 1.03443 98.5768 1.38331C98.2365 1.73219 97.9666 2.14646 97.7825 2.60241C97.5985 3.05837 97.5038 3.54707 97.5041 4.04057H97.5139ZM112.01 9.2016H101.211V4.06758H112.018L112.01 9.2016Z" fill="#BDBDBD"/>
<path d="M141.898 4.04328V19.2029H145.588V12.9878H156.393V19.2029H160.081V4.04328C160.082 3.04763 159.697 2.09251 159.011 1.38769C158.325 0.682869 157.395 0.285978 156.424 0.284189H145.562C145.08 0.28308 144.603 0.379391 144.158 0.567616C143.713 0.755841 143.308 1.03228 142.967 1.38112C142.626 1.72996 142.355 2.14435 142.17 2.60057C141.986 3.0568 141.89 3.54591 141.89 4.03991L141.898 4.04328ZM156.393 9.20338H145.595V4.07029H156.393V9.20338Z" fill="#BDBDBD"/>
<path d="M134.47 0.28418V15.4168H132.95L127.522 1.86074C127.338 1.39631 127.018 0.99784 126.605 0.716798C126.192 0.435755 125.703 0.285059 125.203 0.28418H121.825C121.162 0.287307 120.528 0.552938 120.061 1.02283C119.594 1.49272 119.332 2.12852 119.333 2.79081V19.2029H123.119V4.07028H124.639L130.063 17.6263C130.247 18.0919 130.567 18.4914 130.982 18.7726C131.397 19.0537 131.886 19.2037 132.387 19.2029H135.757C136.42 19.2006 137.055 18.9359 137.522 18.4666C137.99 17.9973 138.252 17.3619 138.252 16.6996V0.28418H134.47Z" fill="#BDBDBD"/>
<path d="M83.8603 15.4228V0.28418H80.0406V15.4465C80.0404 15.94 80.1384 16.4287 80.329 16.8846C80.5197 17.3406 80.7991 17.7549 81.1515 18.1038C81.5039 18.4526 81.9223 18.7293 82.3827 18.9179C82.8431 19.1065 83.3365 19.2033 83.8348 19.2029H95.3211V15.4228H83.8603Z" fill="#BDBDBD"/>
</svg>
