<svg width="431" height="379" viewBox="0 0 431 379" fill="none" xmlns="http://www.w3.org/2000/svg">
<g clip-path="url(#clip0_478_5251)">
<path d="M-13.3867 -40.9893L446.573 419.989" stroke="#003527" stroke-width="1.00407"/>
<path d="M-13.3867 419.989L446.573 -40.9893" stroke="#003527" stroke-width="1.00407"/>
<path d="M440.387 189.5C440.387 313.376 340.092 413.796 216.374 413.796C92.6563 413.796 -7.6381 313.376 -7.6381 189.5C-7.6381 65.6241 92.6563 -34.7961 216.374 -34.7961C340.092 -34.7961 440.387 65.6241 440.387 189.5Z" stroke="#003527" stroke-width="1.00407"/>
<path d="M490.231 189.5C490.231 340.939 367.621 463.703 216.375 463.703C65.1288 463.703 -57.4814 340.939 -57.4814 189.5C-57.4814 38.0615 65.1288 -84.7026 216.375 -84.7026C367.621 -84.7026 490.231 38.0615 490.231 189.5Z" stroke="#003527" stroke-width="1.00407"/>
<path d="M541.386 189.5C541.386 369.226 395.873 514.922 216.375 514.922C36.8764 514.922 -108.637 369.226 -108.637 189.5C-108.637 9.77354 36.8764 -135.922 216.375 -135.922C395.873 -135.922 541.386 9.77354 541.386 189.5Z" stroke="#003527" stroke-width="1.00407"/>
<path d="M380.05 189.5C380.05 280.011 306.769 353.383 216.374 353.383C125.979 353.383 52.6988 280.011 52.6988 189.5C52.6988 98.9893 125.979 25.617 216.374 25.617C306.769 25.617 380.05 98.9893 380.05 189.5Z" stroke="#003527" stroke-width="1.00407"/>
<path d="M-131 195.848L562 195.848" stroke="#003527" stroke-width="1.00407"/>
<path d="M215.719 -157L215.719 536" stroke="#003527" stroke-width="1.00407"/>
</g>
<defs>
<clipPath id="clip0_478_5251">
<rect width="693" height="693" fill="white" transform="translate(-131 -157)"/>
</clipPath>
</defs>
</svg>
