<svg width="32" height="32" viewBox="0 0 32 32" fill="none" xmlns="http://www.w3.org/2000/svg">
<path d="M28.8139 23.1323V8.86006C28.8139 8.59532 28.6679 8.35353 28.4348 8.22928L16.3229 1.80679C16.1142 1.69624 15.8648 1.69624 15.6559 1.80679L3.54393 8.22928C3.3111 8.35288 3.16479 8.59532 3.16479 8.86006V23.1323C3.16479 23.397 3.31079 23.6388 3.54393 23.763L15.6559 30.1855C15.9437 30.3582 16.2179 30.2413 16.3229 30.1855L28.4348 23.763C28.6676 23.6394 28.8139 23.397 28.8139 23.1323ZM27.389 22.7028L15.9895 28.7478L4.59004 22.7028V9.2894L15.9895 3.24541L27.389 9.29038V22.703V22.7028Z" fill="url(#paint0_linear_158_3045)"/>
<path d="M13.1851 8.74964L8.52925 11.2346C8.2977 11.3582 8.15234 11.6006 8.15234 11.8641V15.996C8.15234 16.3897 8.47073 16.7096 8.86481 16.7096C9.25889 16.7096 9.57728 16.3897 9.57728 15.996V12.2922L13.3527 10.2769C13.778 11.3186 14.7977 12.0568 15.9895 12.0568C17.5611 12.0568 18.8394 10.7764 18.8394 9.20234C18.8394 7.62824 17.5611 6.3479 15.9895 6.3479C14.5725 6.3479 13.4039 7.39124 13.1851 8.74995L13.1851 8.74964ZM17.4144 9.20202C17.4144 9.98922 16.7754 10.6292 15.9895 10.6292C15.2035 10.6292 14.5645 9.98922 14.5645 9.20202C14.5645 8.41482 15.2035 7.7748 15.9895 7.7748C16.7754 7.7748 17.4144 8.41482 17.4144 9.20202Z" fill="url(#paint1_linear_158_3045)"/>
<path d="M15.9895 19.9356C14.4179 19.9356 13.1396 21.2159 13.1396 22.79C13.1396 24.3641 14.4179 25.6445 15.9895 25.6445C17.4065 25.6445 18.5751 24.6011 18.7939 23.2424L23.4497 20.7575C23.6813 20.6339 23.8267 20.3915 23.8267 20.128V15.9961C23.8267 15.6023 23.5083 15.2825 23.1142 15.2825C22.7201 15.2825 22.4017 15.6023 22.4017 15.9961V19.6998L18.6263 21.7152C18.201 20.6734 17.1813 19.9353 15.9895 19.9353L15.9895 19.9356ZM15.9895 24.2173C15.2036 24.2173 14.5646 23.5772 14.5646 22.79C14.5646 22.0028 15.2036 21.3628 15.9895 21.3628C16.7755 21.3628 17.4145 22.0028 17.4145 22.79C17.4145 23.5772 16.7755 24.2173 15.9895 24.2173Z" fill="url(#paint2_linear_158_3045)"/>
<defs>
<linearGradient id="paint0_linear_158_3045" x1="31.9132" y1="-1.39345" x2="12.3162" y2="37.3748" gradientUnits="userSpaceOnUse">
<stop stop-color="#00FFB7"/>
<stop offset="1" stop-color="#005B42"/>
</linearGradient>
<linearGradient id="paint1_linear_158_3045" x1="20.1307" y1="5.21662" x2="13.6165" y2="20.0126" gradientUnits="userSpaceOnUse">
<stop stop-color="#00FFB7"/>
<stop offset="1" stop-color="#005B42"/>
</linearGradient>
<linearGradient id="paint2_linear_158_3045" x1="25.118" y1="14.1512" x2="18.6035" y2="28.9475" gradientUnits="userSpaceOnUse">
<stop stop-color="#00FFB7"/>
<stop offset="1" stop-color="#005B42"/>
</linearGradient>
</defs>
</svg>
