<svg width="20" height="20" viewBox="0 0 20 20" fill="none" xmlns="http://www.w3.org/2000/svg">
<path d="M13.4917 1.6665H6.50841C3.47508 1.6665 1.66675 3.47484 1.66675 6.50817V13.4832C1.66675 16.5248 3.47508 18.3332 6.50841 18.3332H13.4834C16.5167 18.3332 18.3251 16.5248 18.3251 13.4915V6.50817C18.3334 3.47484 16.5251 1.6665 13.4917 1.6665ZM12.8001 11.9165C13.0417 12.1582 13.0417 12.5582 12.8001 12.7998C12.6751 12.9248 12.5167 12.9832 12.3584 12.9832C12.2001 12.9832 12.0417 12.9248 11.9167 12.7998L10.0001 10.8832L8.08341 12.7998C7.95841 12.9248 7.80008 12.9832 7.64175 12.9832C7.48341 12.9832 7.32508 12.9248 7.20008 12.7998C6.95842 12.5582 6.95842 12.1582 7.20008 11.9165L9.11675 9.99984L7.20008 8.08317C6.95842 7.8415 6.95842 7.4415 7.20008 7.19984C7.44175 6.95817 7.84175 6.95817 8.08341 7.19984L10.0001 9.1165L11.9167 7.19984C12.1584 6.95817 12.5584 6.95817 12.8001 7.19984C13.0417 7.4415 13.0417 7.8415 12.8001 8.08317L10.8834 9.99984L12.8001 11.9165Z" fill="#616161"/>
</svg>
