<svg width="25" height="25" viewBox="0 0 25 25" fill="none" xmlns="http://www.w3.org/2000/svg">
<path d="M16.5452 2.91379L8.16519 2.91379C4.52519 2.91379 2.3552 5.08379 2.3552 8.72379L2.3552 17.0938C2.3552 20.7438 4.52519 22.9138 8.16519 22.9138H16.5352C20.1752 22.9138 22.3452 20.7438 22.3452 17.1038V8.72379C22.3552 5.08379 20.1852 2.91379 16.5452 2.91379ZM15.7152 15.2138C16.0052 15.5038 16.0052 15.9838 15.7152 16.2738C15.5652 16.4238 15.3752 16.4938 15.1852 16.4938C14.9952 16.4938 14.8052 16.4238 14.6552 16.2738L12.3552 13.9738L10.0552 16.2738C9.90519 16.4238 9.7152 16.4938 9.5252 16.4938C9.3352 16.4938 9.1452 16.4238 8.9952 16.2738C8.7052 15.9838 8.7052 15.5038 8.9952 15.2138L11.2952 12.9138L8.9952 10.6138C8.7052 10.3238 8.7052 9.84379 8.9952 9.55379C9.2852 9.26379 9.76519 9.26379 10.0552 9.55379L12.3552 11.8538L14.6552 9.55379C14.9452 9.26379 15.4252 9.26379 15.7152 9.55379C16.0052 9.84379 16.0052 10.3238 15.7152 10.6138L13.4152 12.9138L15.7152 15.2138Z" fill="url(#paint0_linear_1_10)"/>
<defs>
<linearGradient id="paint0_linear_1_10" x1="24.7607" y1="0.730201" x2="11.921" y2="28.9917" gradientUnits="userSpaceOnUse">
<stop stop-color="#00FFB7"/>
<stop offset="1" stop-color="#005B42"/>
</linearGradient>
</defs>
</svg>
