<svg width="88" height="24" viewBox="0 0 88 24" fill="none" xmlns="http://www.w3.org/2000/svg">
<path d="M65.9998 17.9891C66.0094 17.9911 66.0174 17.9933 66.0268 17.996C66.0965 18.0159 66.166 18.0253 66.1978 17.9612L71.392 3.65779C71.4035 3.60458 71.4033 3.57636 71.3868 3.55782C71.3711 3.54016 71.3456 3.5363 71.3224 3.53189L67.956 2.89163C67.8714 2.87984 67.8099 2.86452 67.7791 2.95266L63.0138 17.1465C62.9739 17.2653 63.0249 17.3597 63.1472 17.3865C63.7955 17.5289 65.819 17.9514 65.9998 17.9891Z" fill="white"/>
<path d="M53.8465 2.97224C53.6862 2.97224 53.5491 3.08749 53.5215 3.24543L50.1481 22.5605C50.1129 22.7624 50.2682 22.9473 50.4732 22.9473H53.2165C53.3783 22.9473 53.5162 22.8299 53.5421 22.6702L54.9502 14.0019C55.0127 13.617 55.5739 13.6399 55.6048 14.0287L56.2896 22.6435C56.3032 22.815 56.4464 22.9473 56.6185 22.9473H60.6989C60.8596 22.9473 60.997 22.8314 61.0241 22.673L64.3282 3.36144C64.3628 3.15869 64.2056 2.97397 63.9999 2.97585L61.313 3.00047C61.1532 3.00193 61.0174 3.1177 60.9907 3.27527L59.5631 11.6972C59.4982 12.0802 58.9401 12.0557 58.9089 11.6685L58.2339 3.27574C58.2201 3.10432 58.077 2.97224 57.905 2.97224H53.8465Z" fill="white"/>
<path d="M41.5833 2.97224C41.422 2.97224 41.2844 3.08873 41.2578 3.24773L38.0249 22.5628C37.9912 22.764 38.1463 22.9473 38.3503 22.9473H41.0993C41.2598 22.9473 41.3971 22.8317 41.4244 22.6735L42.9429 13.8876C43.009 13.5052 43.5662 13.5308 43.5969 13.9177L44.2906 22.6435C44.3042 22.815 44.4474 22.9473 44.6195 22.9473H48.6998C48.8606 22.9473 48.998 22.8314 49.0251 22.673L52.3291 3.36142C52.3638 3.15868 52.2066 2.97396 52.0009 2.97583L49.2903 3.00048C49.1303 3.00193 48.9943 3.11808 48.9679 3.27596L47.5624 11.6739C47.4982 12.0575 46.9393 12.0336 46.9081 11.6459L46.2349 3.27574C46.2211 3.10432 46.0779 2.97224 45.906 2.97224H41.5833Z" fill="white"/>
<path d="M25.7112 2.97261C25.5699 2.97217 25.444 3.06177 25.3981 3.19543L18.7788 22.4758C18.7051 22.6905 18.8652 22.9138 19.0922 22.9129L21.8299 22.9018C21.968 22.9013 22.0912 22.8148 22.1386 22.685L26.0146 12.0694C26.1438 11.7156 26.6696 11.8197 26.6542 12.1961L26.2273 22.6038C26.2197 22.7912 26.3695 22.9473 26.557 22.9473H29.8048C29.9353 22.9473 30.0536 22.8703 30.1065 22.751L34.4182 13.0186C34.5746 12.6654 35.1063 12.8225 35.0458 13.2039L33.5651 22.5344C33.5334 22.7338 33.6866 22.9145 33.8884 22.9161L36.6803 22.9375C36.8415 22.9387 36.98 22.8233 37.0078 22.6645L40.3903 3.35996C40.4257 3.15763 40.2697 2.97244 40.0643 2.97306L35.4683 2.98691C35.3383 2.9873 35.2206 3.06399 35.1678 3.18278L30.5591 13.5444C30.4104 13.8788 29.909 13.7585 29.9281 13.3931L30.4563 3.33372C30.4662 3.14536 30.3164 2.98706 30.1278 2.98647L25.7112 2.97261Z" fill="white"/>
<path fill-rule="evenodd" clip-rule="evenodd" d="M14.4225 19.9693C14.2426 19.9727 14.0931 19.8315 14.0864 19.6517L13.3625 0.345106C13.3555 0.157291 13.5065 0.00153691 13.6944 0.00279043L16.6566 0.0225472C16.8338 0.0237288 16.9784 0.164605 16.9842 0.341675L17.1102 4.18089C17.116 4.35736 17.2597 4.49799 17.4362 4.50001L20.243 4.53202C20.3836 4.53362 20.5098 4.44595 20.5573 4.31361L22.0277 0.21946C22.075 0.0879197 22.2 0.000413867 22.3397 0.00103307L25.2088 0.0137441C25.4364 0.0147523 25.5946 0.240367 25.5181 0.454667L18.6547 19.6746C18.6085 19.8038 18.4874 19.8909 18.3503 19.8936L14.4225 19.9693ZM18.6927 8.24172C18.9193 8.24172 19.0784 8.46488 19.0047 8.67913L17.9893 11.6273C17.8703 11.9729 17.361 11.8972 17.3476 11.5319L17.2398 8.58375C17.2329 8.39691 17.3825 8.24172 17.5695 8.24172H18.6927Z" fill="white"/>
<path fill-rule="evenodd" clip-rule="evenodd" d="M3.68133 3.02692C3.51974 3.02589 3.38118 3.14205 3.35399 3.30134L0.0661074 22.5606C0.0316065 22.7627 0.187816 22.947 0.392832 22.9461L10.3069 22.9019C11.7098 22.866 12.7037 22.1273 12.922 21.0779C13.1403 20.0289 12.5795 5.98245 12.5792 5.97462C12.5792 5.97438 12.5792 5.97449 12.5791 5.97425C12.4757 3.52316 10.6413 3.10109 9.98226 3.06672L3.68133 3.02692ZM4.56416 19.247C4.35835 19.2514 4.19873 19.0684 4.23114 18.8651L6.1397 6.89476C6.16527 6.73438 6.30375 6.61646 6.46615 6.61675L7.51992 6.61867C8.18718 6.61727 9.06122 6.61544 9.15325 7.22778L9.29368 14.2143C9.31814 16.7426 9.32232 18.7955 9.30693 18.9487C9.30231 18.9948 9.29137 19.1478 9.12233 19.1478L4.56416 19.247Z" fill="white"/>
<ellipse rx="1.88864" ry="2.10123" transform="matrix(0.840433 0.541916 -0.545163 0.83833 64.9623 20.8797)" fill="white"/>
<path d="M70.5361 16.1166C70.1986 16.0209 69.8901 15.8897 69.6106 15.7228C69.3312 15.5559 69.1146 15.3818 68.9609 15.2004L69.66 14.4714C69.8281 14.661 70.0186 14.8235 70.2315 14.9591C70.4455 15.0907 70.6689 15.1895 70.9017 15.2555C71.1229 15.3181 71.3024 15.3356 71.4404 15.3078C71.5833 15.2774 71.6708 15.2061 71.7028 15.094C71.7304 14.9975 71.6957 14.9062 71.5986 14.8202C71.5054 14.7353 71.3513 14.629 71.1361 14.5012C70.8922 14.3569 70.6928 14.2253 70.5381 14.1063C70.3845 13.9834 70.2646 13.8304 70.1786 13.6473C70.0964 13.4653 70.0895 13.2546 70.1579 13.015C70.2407 12.7253 70.3926 12.4947 70.6135 12.3235C70.8355 12.1483 71.111 12.0426 71.4401 12.0064C71.7692 11.9702 72.1317 12.0082 72.5274 12.1203C72.8184 12.2028 73.0812 12.3106 73.3157 12.4439C73.5513 12.5733 73.7443 12.7199 73.8946 12.8836L73.2322 13.6167C73.1018 13.4712 72.9468 13.3459 72.7671 13.2407C72.5925 13.1327 72.4043 13.0501 72.2025 12.993C71.9736 12.9281 71.7827 12.9137 71.6298 12.9497C71.4808 12.9869 71.3897 13.0634 71.3566 13.1793C71.3279 13.2797 71.3621 13.3729 71.4592 13.4589C71.5562 13.5449 71.7142 13.6523 71.9333 13.7812C72.1783 13.9216 72.3763 14.0508 72.5271 14.1687C72.6818 14.2877 72.8009 14.4363 72.8842 14.6144C72.9675 14.7925 72.976 14.9975 72.9098 15.2293C72.8281 15.5152 72.6743 15.7452 72.4484 15.9192C72.2275 16.0905 71.9505 16.1937 71.6176 16.2288C71.2885 16.265 70.928 16.2276 70.5361 16.1166Z" fill="white"/>
<path d="M74.9851 17.3772C74.5739 17.2607 74.2365 17.0837 73.9731 16.8461C73.7135 16.6097 73.5389 16.3326 73.4494 16.0149C73.3637 15.6983 73.3705 15.3661 73.4699 15.0184C73.6024 14.5548 73.8283 14.1678 74.1477 13.8574C74.471 13.548 74.8545 13.3435 75.2982 13.2437C75.7458 13.145 76.216 13.1655 76.7087 13.3051C77.12 13.4216 77.4554 13.5981 77.715 13.8345C77.9784 14.072 78.153 14.3491 78.2387 14.6657C78.3282 14.9834 78.3233 15.3162 78.2239 15.6639C78.0915 16.1275 77.8636 16.514 77.5403 16.8233C77.2209 17.1337 76.8375 17.3383 76.3898 17.437C75.9461 17.5367 75.4779 17.5168 74.9851 17.3772ZM75.3557 16.4548C75.6117 16.5274 75.855 16.5274 76.0854 16.4549C76.3158 16.3824 76.5138 16.2547 76.6793 16.0719C76.8459 15.8852 76.9661 15.6625 77.0401 15.4036C77.1185 15.1293 77.0955 14.8868 76.9712 14.6762C76.8518 14.4628 76.6408 14.3132 76.3382 14.2275C76.0821 14.1549 75.8389 14.1549 75.6084 14.2274C75.378 14.2999 75.1795 14.4295 75.0129 14.6162C74.8474 14.799 74.7277 15.0198 74.6537 15.2787C74.5754 15.553 74.5958 15.7969 74.7152 16.0103C74.8396 16.2209 75.053 16.3691 75.3557 16.4548Z" fill="white"/>
<path d="M70.1656 18.5853H72.005C72.4407 18.5853 72.8178 18.6576 73.1365 18.8022C73.4552 18.9428 73.8203 19.1477 73.9897 19.4168C74.1631 19.6819 74.2499 19.9952 74.2499 20.3568C74.2499 20.8468 74.1369 21.2766 73.911 21.6462C73.6892 22.0157 73.3786 22.3009 72.9792 22.5017C72.5798 22.7026 72.122 22.803 71.6057 22.803H69.4395L70.1656 18.5853ZM71.642 21.851C71.9324 21.851 72.1825 21.7908 72.3923 21.6703C72.6061 21.5457 72.7674 21.377 72.8763 21.1641C72.9853 20.9472 73.0397 20.7022 73.0397 20.4291C73.0397 20.1439 72.951 19.9249 72.7735 19.7723C72.596 19.6156 72.3358 19.5373 71.9929 19.5373H71.291L70.8311 21.851H71.642Z" fill="white"/>
<path d="M76.7257 22.8874C76.2981 22.8874 75.925 22.809 75.6063 22.6524C75.2917 22.4957 75.0476 22.2768 74.8742 21.9956C74.7047 21.7144 74.62 21.3931 74.62 21.0316C74.62 20.5496 74.731 20.1157 74.9528 19.7301C75.1787 19.3445 75.2725 19.16 75.7697 18.8263C76.1731 18.6094 76.6309 18.501 77.1432 18.501C77.5708 18.501 77.9419 18.5793 78.2566 18.736C78.5753 18.8926 78.8969 19.0395 79.1098 19.3927C79.3226 19.7459 79.3699 19.9952 79.3699 20.3568C79.3699 20.8388 79.257 21.2726 79.0311 21.6582C78.8092 22.0438 78.4966 22.3451 78.0932 22.562C77.6939 22.7789 77.238 22.8874 76.7257 22.8874ZM76.8286 21.8992C77.0948 21.8992 77.3288 21.8329 77.5305 21.7004C77.7322 21.5678 77.8875 21.3911 77.9964 21.1702C78.1053 20.9452 78.1598 20.6982 78.1598 20.4291C78.1598 20.1439 78.071 19.9169 77.8935 19.7482C77.7201 19.5755 77.476 19.4891 77.1614 19.4891C76.8951 19.4891 76.6612 19.5554 76.4595 19.688C76.2578 19.8205 76.1025 19.9993 75.9936 20.2242C75.8846 20.4451 75.8302 20.6902 75.8302 20.9593C75.8302 21.2445 75.9169 21.4734 76.0904 21.6462C76.2679 21.8149 76.5139 21.8992 76.8286 21.8992Z" fill="white"/>
<path d="M82.0729 18.5853C82.6215 18.5853 83.045 18.7038 83.3436 18.9408C83.6421 19.1778 83.9123 19.5112 83.9123 19.941C83.9123 20.2945 83.8256 20.6038 83.6521 20.8689C83.4827 21.134 83.2387 21.3389 82.92 21.4835C82.6053 21.6281 82.2383 21.7004 81.8187 21.7004H80.9716L80.7538 22.803H79.5557L80.2818 18.5853H82.0729ZM81.8732 20.7604C82.1394 20.7604 82.3431 20.6982 82.4843 20.5737C82.6295 20.4491 82.7022 20.2724 82.7022 20.0434C82.7022 19.8707 82.6437 19.7422 82.5267 19.6578C82.4137 19.5695 82.2504 19.5253 82.0366 19.5253H81.4073L81.1592 20.7604H81.8732Z" fill="white"/>
<path d="M85.7974 19.5072L85.6582 20.2182H87.54L87.3646 21.1099H85.4767L85.3254 21.8811H87.5461L87.3525 22.803H83.9579L84.684 18.5853H87.9999L87.9334 19.5072H85.7974Z" fill="white"/>
</svg>
