<svg width="18" height="14" viewBox="0 0 18 14" fill="none" xmlns="http://www.w3.org/2000/svg">
<path d="M15.0649 1.20339C13.9301 0.695867 12.7327 0.333642 11.5026 0.12574C11.4914 0.123911 11.48 0.125491 11.4698 0.130263C11.4596 0.135035 11.4512 0.142764 11.4457 0.152388C11.2915 0.418869 11.1209 0.767426 11.0016 1.0403C9.67559 0.844181 8.32678 0.844181 7.00074 1.0403C6.86775 0.736322 6.71731 0.439882 6.55012 0.152388C6.54451 0.14287 6.53607 0.135229 6.52592 0.130473C6.51577 0.125716 6.50438 0.124066 6.49324 0.12574C5.26279 0.332529 4.06514 0.694943 2.93094 1.20339C2.92123 1.207 2.91311 1.21378 2.90797 1.22257C0.639556 4.52587 0.0172184 7.74815 0.322371 10.9299C0.323465 10.9449 0.333309 10.9598 0.34534 10.9694C1.66627 11.923 3.14377 12.651 4.71483 13.1225C4.72592 13.1259 4.73784 13.1258 4.74885 13.1222C4.75987 13.1185 4.7694 13.1116 4.77607 13.1023C5.11295 12.6546 5.41263 12.1824 5.67075 11.6857C5.67613 11.6754 5.67798 11.6638 5.676 11.6525C5.67403 11.6411 5.66835 11.6307 5.65982 11.6228C5.65416 11.6176 5.64746 11.6136 5.64013 11.6111C5.1689 11.4346 4.71252 11.2225 4.27514 10.9768C4.26293 10.9701 4.25384 10.959 4.24977 10.9459C4.2457 10.9328 4.24695 10.9187 4.25327 10.9065C4.25699 10.8985 4.26262 10.8916 4.26967 10.8862C4.36155 10.8191 4.45342 10.7487 4.54092 10.6784C4.54865 10.6723 4.55792 10.6684 4.56775 10.6671C4.57758 10.6658 4.58758 10.6671 4.5967 10.6709C7.4612 11.9458 10.562 11.9458 13.3915 10.6709C13.4009 10.6669 13.4113 10.6655 13.4215 10.6668C13.4317 10.6681 13.4414 10.6721 13.4494 10.6784C13.5369 10.7487 13.6288 10.8191 13.7207 10.8862C13.7281 10.8915 13.7341 10.8985 13.7381 10.9067C13.7421 10.9148 13.7439 10.9237 13.7435 10.9327C13.743 10.9416 13.7403 10.9504 13.7356 10.9581C13.7308 10.9658 13.7242 10.9722 13.7163 10.9768C13.2799 11.2248 12.8229 11.4366 12.3502 11.61C12.3427 11.6126 12.3358 11.6169 12.3302 11.6224C12.3245 11.6279 12.3201 11.6346 12.3174 11.642C12.3149 11.6491 12.3139 11.6566 12.3144 11.6641C12.315 11.6717 12.3171 11.679 12.3207 11.6857C12.5832 12.1813 12.884 12.6546 13.2143 13.1023C13.2209 13.1116 13.2305 13.1185 13.2415 13.1222C13.2525 13.1258 13.2644 13.1259 13.2755 13.1225C14.8492 12.6525 16.3291 11.9243 17.6516 10.9694C17.6582 10.9649 17.6637 10.959 17.6677 10.9522C17.6716 10.9454 17.674 10.9378 17.6745 10.9299C18.0398 7.25143 17.0631 4.0558 15.0867 1.22364C15.0848 1.21896 15.0818 1.21474 15.078 1.21125C15.0742 1.20777 15.0698 1.20509 15.0649 1.20339ZM6.0984 8.99208C5.23545 8.99208 4.52561 8.22035 4.52561 7.27382C4.52561 6.32621 5.22232 5.55448 6.0984 5.55448C6.98105 5.55448 7.68433 6.33261 7.6712 7.27382C7.6712 8.22035 6.97449 8.99208 6.0984 8.99208ZM11.9127 8.99208C11.0509 8.99208 10.3399 8.22035 10.3399 7.27382C10.3399 6.32621 11.0366 5.55448 11.9127 5.55448C12.7954 5.55448 13.4997 6.33261 13.4855 7.27382C13.4855 8.22035 12.7954 8.99208 11.9127 8.99208Z" fill="white"/>
</svg>
