<svg width="713" height="715" viewBox="0 0 713 715" fill="none" xmlns="http://www.w3.org/2000/svg">
<path d="M601.498 357.5C601.498 493.362 491.584 603.498 356 603.498C220.416 603.498 110.502 493.362 110.502 357.5C110.502 221.638 220.416 111.502 356 111.502C491.584 111.502 601.498 221.638 601.498 357.5Z" stroke="#3F3F3F" stroke-width="1.00407"/>
<circle cx="356.5" cy="357.5" r="299.998" stroke="#3F3F3F" stroke-width="1.00407"/>
<path d="M712.498 357.5C712.498 554.666 553.111 714.498 356.5 714.498C159.889 714.498 0.502158 554.666 0.502158 357.5C0.502158 160.334 159.889 0.502035 356.5 0.502035C553.111 0.502035 712.498 160.334 712.498 357.5Z" stroke="#3F3F3F" stroke-width="1.00407"/>
<path d="M535.498 357.5C535.498 456.913 455.355 537.498 356.5 537.498C257.645 537.498 177.502 456.913 177.502 357.5C177.502 258.087 257.645 177.502 356.5 177.502C455.355 177.502 535.498 258.087 535.498 357.5Z" stroke="#3F3F3F" stroke-width="1.00407"/>
</svg>
