<svg width="25" height="25" viewBox="0 0 25 25" fill="none" xmlns="http://www.w3.org/2000/svg">
<path d="M17.7823 16.0623L13.7423 12.3923H11.0323L6.9923 16.0623C5.8623 17.0823 5.4923 18.6523 6.0423 20.0723C6.5923 21.4823 7.9323 22.3923 9.4423 22.3923H15.3323C16.8523 22.3923 18.1823 21.4823 18.7323 20.0723C19.2823 18.6523 18.9123 17.0823 17.7823 16.0623ZM14.2123 18.5323H10.5723C10.1923 18.5323 9.8923 18.2223 9.8923 17.8523C9.8923 17.4823 10.2023 17.1723 10.5723 17.1723H14.2123C14.5923 17.1723 14.8923 17.4823 14.8923 17.8523C14.8923 18.2223 14.5823 18.5323 14.2123 18.5323Z" fill="url(#paint0_linear_1_14)"/>
<path d="M18.7423 4.7123C18.1923 3.3023 16.8523 2.3923 15.3423 2.3923L9.4423 2.3923C7.9323 2.3923 6.5923 3.3023 6.0423 4.7123C5.5023 6.1323 5.8723 7.7023 7.0023 8.7223L11.0423 12.3923H13.7523L17.7923 8.7223C18.9123 7.7023 19.2823 6.1323 18.7423 4.7123ZM14.2123 7.6223L10.5723 7.6223C10.1923 7.6223 9.8923 7.3123 9.8923 6.9423C9.8923 6.5723 10.2023 6.2623 10.5723 6.2623H14.2123C14.5923 6.2623 14.8923 6.5723 14.8923 6.9423C14.8923 7.3123 14.5823 7.6223 14.2123 7.6223Z" fill="url(#paint1_linear_1_14)"/>
<defs>
<linearGradient id="paint0_linear_1_14" x1="20.5774" y1="11.3005" x2="15.331" y2="26.542" gradientUnits="userSpaceOnUse">
<stop stop-color="#00FFB7"/>
<stop offset="1" stop-color="#005B42"/>
</linearGradient>
<linearGradient id="paint1_linear_1_14" x1="20.5807" y1="1.30051" x2="15.3334" y2="16.5413" gradientUnits="userSpaceOnUse">
<stop stop-color="#00FFB7"/>
<stop offset="1" stop-color="#005B42"/>
</linearGradient>
</defs>
</svg>
