<svg width="20" height="20" viewBox="0 0 20 20" fill="none" xmlns="http://www.w3.org/2000/svg">
<path d="M16.9051 6.7119V7.15218C16.9051 11.5858 13.326 16.6666 6.77686 16.6666C4.84346 16.6705 2.95112 16.1425 1.33325 15.1476C1.61423 15.1835 1.89765 15.1997 2.18118 15.196C3.78381 15.2002 5.34138 14.6978 6.60352 13.7695C5.85897 13.7592 5.13683 13.5286 4.53971 13.1105C3.9426 12.6924 3.5009 12.108 3.2774 11.4405C3.49917 11.4847 3.72528 11.5068 3.95199 11.5065C4.26856 11.5066 4.58371 11.4666 4.88893 11.3876C4.0825 11.2366 3.357 10.8268 2.83657 10.2284C2.31613 9.6301 2.03312 8.88039 2.03595 8.10758V8.06355C2.52935 8.32257 3.0825 8.46463 3.64749 8.47741C2.8954 8.01229 2.36069 7.29482 2.15259 6.4716C1.94449 5.64838 2.07872 4.78155 2.52785 4.04822C3.42274 5.08265 4.53926 5.9285 5.8048 6.53078C7.07035 7.13306 8.4566 7.47829 9.87343 7.54402C9.8033 7.29413 9.77019 7.03634 9.77505 6.77794C9.74867 6.09503 9.94689 5.42107 10.3427 4.84784C10.7385 4.2746 11.3127 3.82994 11.9871 3.57441C12.6614 3.31887 13.4032 3.26488 14.1114 3.41978C14.8196 3.57468 15.4598 3.93095 15.9448 4.44007C16.742 4.28886 17.5068 4.01357 18.2075 3.62556C17.9417 4.41425 17.3764 5.08345 16.6194 5.50554C17.3266 5.41396 18.0161 5.22712 18.6666 4.95079C18.1951 5.6313 17.5987 6.22762 16.9051 6.7119Z" fill="white"/>
</svg>
