<svg width="20" height="20" viewBox="0 0 20 20" fill="none" xmlns="http://www.w3.org/2000/svg">
<path d="M13.4917 1.66669H6.50835C3.47502 1.66669 1.66669 3.47502 1.66669 6.50835V13.4834C1.66669 16.525 3.47502 18.3334 6.50835 18.3334H13.4834C16.5167 18.3334 18.325 16.525 18.325 13.4917V6.50835C18.3334 3.47502 16.525 1.66669 13.4917 1.66669ZM12.2167 11.4417L11.15 12.0584L10.0834 12.675C8.70835 13.4667 7.58335 12.8167 7.58335 11.2334V10V8.76669C7.58335 7.17502 8.70835 6.53335 10.0834 7.32502L11.15 7.94169L12.2167 8.55835C13.5917 9.35002 13.5917 10.65 12.2167 11.4417Z" fill="url(#paint0_linear_102_313)"/>
<defs>
<linearGradient id="paint0_linear_102_313" x1="20.3379" y1="-0.15297" x2="9.63817" y2="23.3983" gradientUnits="userSpaceOnUse">
<stop stop-color="#00FFB7"/>
<stop offset="1" stop-color="#005B42"/>
</linearGradient>
</defs>
</svg>
