<svg width="32" height="32" viewBox="0 0 32 32" fill="none" xmlns="http://www.w3.org/2000/svg">
<path d="M0.242349 30.6841L1.34504 31.7868C1.58116 32.0227 1.96357 32.0227 2.19967 31.7868L8.76206 25.2238C8.86354 25.1228 8.92049 24.9854 8.92049 24.8421C8.92049 24.6989 8.86354 24.5617 8.76206 24.4605L8.6459 24.3415L17.4422 15.5485C17.5913 15.3997 17.595 15.1595 17.4508 15.0064C17.3701 14.9214 17.2886 14.8371 17.2048 14.7541C17.1213 14.6711 17.0375 14.5891 16.9525 14.5081C16.7994 14.3638 16.5592 14.3676 16.4104 14.5167L7.61733 23.313L7.50193 23.1976C7.4007 23.0961 7.26353 23.0392 7.12029 23.0392C6.97705 23.0392 6.83963 23.0961 6.73865 23.1976L0.176901 29.76C-0.058967 29.9958 -0.058967 30.3785 0.176901 30.6146L0.242349 30.6841Z" fill="url(#paint0_linear_261_3458)"/>
<path d="M24.2472 7.46375L22.4111 8.13061C22.2825 8.17743 22.1856 8.28499 22.1527 8.41786C22.1198 8.55047 22.155 8.69093 22.2466 8.79241C22.3883 8.95109 22.5379 9.10826 22.6951 9.26364C22.8525 9.41903 23.0094 9.5686 23.1663 9.7121L23.1666 9.71235C23.268 9.80397 23.4085 9.83914 23.5411 9.80624C23.674 9.77334 23.7815 9.67642 23.8283 9.54785L24.4952 7.71175C24.5208 7.64115 24.5033 7.56193 24.4502 7.50879C24.397 7.45564 24.3178 7.43818 24.2472 7.46374L24.2472 7.46375Z" fill="url(#paint1_linear_261_3458)"/>
<path d="M13.4505 4.92582C16.2382 2.49095 19.0856 2.36617 20.55 2.5122H20.5503C20.6657 2.52435 20.7811 2.48892 20.8697 2.41376C20.9582 2.33859 21.0124 2.23053 21.0192 2.11462L21.1134 0.501003L21.1136 0.501256C21.1265 0.27475 20.9593 0.0778525 20.7338 0.0540687C19.3909 -0.0876554 14.9529 -0.219512 11.3349 3.39876C7.71664 7.01705 7.85205 11.4513 7.99024 12.7917C8.01353 13.0178 8.21042 13.1853 8.43718 13.1724L10.0508 13.0782V13.078C10.1667 13.0712 10.2748 13.017 10.3499 12.9284C10.4248 12.8398 10.4605 12.7244 10.4484 12.609C10.3024 11.1442 10.4271 8.29705 12.8628 5.50954L12.8625 5.50929C13.0455 5.30227 13.2421 5.1074 13.4507 4.92619L13.4505 4.92582Z" fill="url(#paint2_linear_261_3458)"/>
<path d="M31.9094 11.2243C31.8856 10.9988 31.6887 10.8315 31.4622 10.8444L29.8486 10.9386L29.8488 10.9388C29.7329 10.9457 29.6248 10.9998 29.5497 11.0884C29.4745 11.177 29.4391 11.2924 29.4512 11.4078C29.598 12.8726 29.4725 15.7198 27.0376 18.5073V18.5075C26.8546 18.7163 26.658 18.913 26.4487 19.0957C23.6611 21.5311 20.8139 21.6559 19.3492 21.507C19.2338 21.4949 19.1181 21.5303 19.0296 21.6055C18.941 21.6807 18.8871 21.7887 18.88 21.9046L18.7859 23.5182V23.518C18.7729 23.7448 18.9405 23.9417 19.1665 23.9652C20.5086 24.1034 24.9473 24.2388 28.5647 20.6205C32.182 17.0022 32.0483 12.5673 31.9093 11.2243L31.9094 11.2243Z" fill="url(#paint3_linear_261_3458)"/>
<path d="M12.1066 10.9014C15.6667 10.5231 21.4355 16.292 21.0571 19.8519C21.0457 19.9478 21.0799 20.0435 21.1495 20.1106C21.2191 20.1774 21.316 20.2078 21.4114 20.1928C22.6318 19.9929 24.1297 19.4488 25.6199 18.1469C25.7864 18.0012 25.9428 17.8445 26.0883 17.678C27.3902 16.1899 27.935 14.6896 28.1342 13.4703L28.1339 13.4701C28.1491 13.3747 28.1187 13.2777 28.0517 13.2081C27.9849 13.1385 27.8892 13.1044 27.7933 13.1158C24.234 13.4921 18.467 7.72518 18.8434 4.16592C18.8548 4.07 18.8207 3.97434 18.7511 3.90752C18.6815 3.84045 18.5843 3.81009 18.4891 3.82502C17.2688 4.02343 15.7708 4.5706 14.2784 5.87012C14.1119 6.01564 13.955 6.17205 13.8092 6.33857C12.5074 7.82669 11.9668 9.32693 11.7633 10.547H11.7636C11.7484 10.6429 11.779 10.7404 11.8463 10.81C11.9139 10.8796 12.0103 10.9135 12.1065 10.9013L12.1066 10.9014Z" fill="url(#paint4_linear_261_3458)"/>
<defs>
<linearGradient id="paint0_linear_261_3458" x1="19.6779" y1="12.485" x2="8.40546" y2="37.3024" gradientUnits="userSpaceOnUse">
<stop stop-color="#00FFB7"/>
<stop offset="1" stop-color="#005B42"/>
</linearGradient>
<linearGradient id="paint1_linear_261_3458" x1="24.7927" y1="7.19381" x2="23.2741" y2="10.538" gradientUnits="userSpaceOnUse">
<stop stop-color="#00FFB7"/>
<stop offset="1" stop-color="#005B42"/>
</linearGradient>
<linearGradient id="paint2_linear_261_3458" x1="22.7065" y1="-1.43823" x2="14.254" y2="17.1813" gradientUnits="userSpaceOnUse">
<stop stop-color="#00FFB7"/>
<stop offset="1" stop-color="#005B42"/>
</linearGradient>
<linearGradient id="paint3_linear_261_3458" x1="33.5545" y1="9.4054" x2="25.1009" y2="28.0261" gradientUnits="userSpaceOnUse">
<stop stop-color="#00FFB7"/>
<stop offset="1" stop-color="#005B42"/>
</linearGradient>
<linearGradient id="paint4_linear_261_3458" x1="30.1168" y1="2.03345" x2="19.6087" y2="25.1782" gradientUnits="userSpaceOnUse">
<stop stop-color="#00FFB7"/>
<stop offset="1" stop-color="#005B42"/>
</linearGradient>
</defs>
</svg>
