<svg width="24" height="24" viewBox="0 0 24 24" fill="none" xmlns="http://www.w3.org/2000/svg">
<path d="M0.181762 23.0132L1.00878 23.8402C1.18587 24.0171 1.47268 24.0171 1.64975 23.8402L6.57154 18.918C6.64766 18.8422 6.69037 18.7392 6.69037 18.6317C6.69037 18.5243 6.64766 18.4214 6.57154 18.3455L6.48442 18.2563L13.0816 11.6615C13.1934 11.5499 13.1963 11.3698 13.0881 11.2549C13.0275 11.1911 12.9664 11.1279 12.9036 11.0657C12.841 11.0034 12.7781 10.9419 12.7144 10.8812C12.5995 10.773 12.4194 10.7758 12.3078 10.8876L5.713 17.4849L5.62645 17.3983C5.55052 17.3222 5.44765 17.2795 5.34022 17.2795C5.23279 17.2795 5.12972 17.3222 5.05399 17.3983L0.132676 22.3201C-0.0442252 22.497 -0.0442252 22.784 0.132676 22.9611L0.181762 23.0132Z" fill="url(#paint0_linear_401_2004)"/>
<path d="M18.1847 5.59781L16.8076 6.09796C16.7112 6.13308 16.6385 6.21374 16.6138 6.31339C16.5891 6.41286 16.6155 6.5182 16.6842 6.59431C16.7905 6.71332 16.9027 6.83119 17.0206 6.94773C17.1386 7.06427 17.2563 7.17645 17.374 7.28408L17.3742 7.28427C17.4503 7.35298 17.5556 7.37936 17.6551 7.35468C17.7547 7.33001 17.8354 7.25731 17.8705 7.16089L18.3707 5.78381C18.3898 5.73086 18.3768 5.67145 18.3369 5.63159C18.297 5.59173 18.2376 5.57863 18.1847 5.5978L18.1847 5.59781Z" fill="url(#paint1_linear_401_2004)"/>
<path d="M10.0881 3.69437C12.1789 1.86821 14.3145 1.77463 15.4128 1.88415H15.4129C15.4995 1.89326 15.5861 1.86669 15.6525 1.81032C15.7189 1.75394 15.7595 1.6729 15.7647 1.58596L15.8353 0.375752L15.8355 0.375942C15.8451 0.206063 15.7197 0.0583893 15.5506 0.0405515C14.5434 -0.0657416 11.2149 -0.164634 8.50144 2.54907C5.78773 5.26279 5.88928 8.58846 5.99293 9.59381C6.01039 9.76331 6.15806 9.88896 6.32813 9.87928L7.53834 9.80868V9.80849C7.62527 9.80336 7.70632 9.76274 7.76269 9.69631C7.81887 9.62988 7.84564 9.54333 7.83653 9.45677C7.72701 8.35817 7.82058 6.22279 9.64733 4.13215L9.64714 4.13196C9.78437 3.9767 9.93185 3.83055 10.0883 3.69464L10.0881 3.69437Z" fill="url(#paint2_linear_401_2004)"/>
<path d="M23.932 8.41824C23.9142 8.24912 23.7665 8.12366 23.5966 8.13334L22.3864 8.20394L22.3866 8.20413C22.2997 8.20926 22.2186 8.24988 22.1623 8.31631C22.1059 8.38275 22.0793 8.4693 22.0884 8.55585C22.1985 9.65445 22.1044 11.7898 20.2782 13.8805V13.8807C20.141 14.0373 19.9935 14.1847 19.8365 14.3218C17.7458 16.1483 15.6104 16.2419 14.5119 16.1303C14.4254 16.1212 14.3386 16.1477 14.2722 16.2041C14.2057 16.2605 14.1653 16.3415 14.16 16.4285L14.0894 17.6387V17.6385C14.0797 17.8086 14.2054 17.9562 14.3749 17.9739C15.3814 18.0775 18.7105 18.1791 21.4235 15.4654C24.1365 12.7517 24.0362 9.42549 23.932 8.4182L23.932 8.41824Z" fill="url(#paint3_linear_401_2004)"/>
<path d="M9.07995 8.17608C11.75 7.89232 16.0766 12.219 15.7928 14.8889C15.7843 14.9609 15.8099 15.0326 15.8621 15.0829C15.9143 15.133 15.987 15.1558 16.0586 15.1446C16.9738 14.9947 18.0973 14.5866 19.2149 13.6102C19.3398 13.5009 19.4571 13.3834 19.5662 13.2585C20.5426 12.1424 20.9513 11.0172 21.1006 10.1027L21.1004 10.1026C21.1118 10.031 21.0891 9.95829 21.0388 9.9061C20.9887 9.8539 20.9169 9.82827 20.845 9.83682C18.1755 10.1191 13.8503 5.79389 14.1326 3.12444C14.1411 3.0525 14.1155 2.98075 14.0633 2.93064C14.0111 2.88034 13.9382 2.85757 13.8669 2.86877C12.9516 3.01758 11.8281 3.42795 10.7088 4.40259C10.5839 4.51173 10.4662 4.62904 10.3569 4.75393C9.38052 5.87002 8.97507 6.9952 8.8225 7.91027H8.82269C8.8113 7.9822 8.83427 8.05528 8.88475 8.10748C8.93543 8.15967 9.00775 8.18511 9.07988 8.176L9.07995 8.17608Z" fill="url(#paint4_linear_401_2004)"/>
<defs>
<linearGradient id="paint0_linear_401_2004" x1="6.5837" y1="10.8019" x2="6.5837" y2="23.9729" gradientUnits="userSpaceOnUse">
<stop stop-color="white"/>
<stop offset="0.848958" stop-color="#434343"/>
</linearGradient>
<linearGradient id="paint1_linear_401_2004" x1="17.4921" y1="5.58911" x2="17.4921" y2="7.36375" gradientUnits="userSpaceOnUse">
<stop stop-color="white"/>
<stop offset="0.848958" stop-color="#434343"/>
</linearGradient>
<linearGradient id="paint2_linear_401_2004" x1="10.8947" y1="0" x2="10.8947" y2="9.87981" gradientUnits="userSpaceOnUse">
<stop stop-color="white"/>
<stop offset="0.848958" stop-color="#434343"/>
</linearGradient>
<linearGradient id="paint3_linear_401_2004" x1="19.0303" y1="8.13281" x2="19.0303" y2="18.0134" gradientUnits="userSpaceOnUse">
<stop stop-color="white"/>
<stop offset="0.848958" stop-color="#434343"/>
</linearGradient>
<linearGradient id="paint4_linear_401_2004" x1="14.9616" y1="2.86597" x2="14.9616" y2="15.1474" gradientUnits="userSpaceOnUse">
<stop stop-color="white"/>
<stop offset="0.848958" stop-color="#434343"/>
</linearGradient>
</defs>
</svg>
