<svg width="24" height="24" viewBox="0 0 24 24" fill="none" xmlns="http://www.w3.org/2000/svg">
<path d="M23.7512 4.79306C22.2268 3.51258 19.933 1.19767 18.9678 0.21005C18.7148 -0.0496077 18.3048 -0.0712136 18.0259 0.160205C15.9731 1.85839 13.2413 3.50349 12.2732 4.07132C12.0555 4.19906 11.9245 4.43522 11.9311 4.68747C12.0081 7.79311 11.0323 11.1047 10.6202 12.3555C10.5129 12.6819 10.2664 12.944 9.94702 13.0714L6.72938 14.3594C6.17547 14.5813 5.75429 15.0455 5.58725 15.6181L4.77221 18.4159C4.69864 18.6672 4.55376 18.8918 4.35541 19.0627C3.67635 19.6503 1.62093 22.1407 0.111457 23.4467C-0.171093 23.6908 0.134212 24.1366 0.46398 23.9594C2.32653 22.9702 4.75419 20.9669 5.74962 20.502C6.11087 20.3348 6.37901 20.016 6.48178 19.6316C6.72926 18.6944 7.1089 17.8072 7.37493 17.2436C7.56968 16.8298 7.90495 16.4987 8.32098 16.309C9.34102 15.8431 10.7755 15.3537 11.6215 15.074C11.829 15.0065 12.0133 14.8818 12.153 14.7143C12.2928 14.5465 12.3825 14.343 12.4115 14.1268C12.7737 11.4584 13.452 8.84249 14.4324 6.33402C14.7254 5.58367 15.1828 4.90837 15.771 4.35782C16.9752 3.24338 18.1562 3.20776 18.9515 3.38248C19.6592 3.53505 20.2759 3.9653 20.6633 4.5765C21.6695 6.18502 20.0091 7.52824 20.0091 7.52824C19.1643 8.1916 17.8598 7.97515 17.2655 7.82693H17.2657C17.1887 7.80741 17.1069 7.8239 17.0436 7.87147C16.9801 7.91923 16.9416 7.99315 16.9391 8.07256L16.911 8.79958C16.9078 8.88411 16.9456 8.96485 17.0123 9.01659L18.756 10.371H18.7562C18.9139 10.4934 19.1123 10.5516 19.3114 10.5334C19.5103 10.5152 19.695 10.4223 19.8282 10.2734L23.8243 5.79059C23.9492 5.64958 24.0118 5.46422 23.9982 5.27638C23.9843 5.08837 23.8952 4.91419 23.7509 4.79289L23.7512 4.79306Z" fill="url(#paint0_linear_401_1804)"/>
<path d="M18.2404 6.92919C18.5652 6.9417 18.8817 6.82476 19.1203 6.60415C19.3588 6.38354 19.5001 6.07728 19.5128 5.75278C19.5255 5.42811 19.4087 5.11159 19.1882 4.87317C18.9674 4.63455 18.6612 4.49316 18.3363 4.48046C18.0115 4.46757 17.6948 4.58413 17.4561 4.80436C17.2173 5.02479 17.0757 5.3309 17.0628 5.65554C17.0497 5.98059 17.1665 6.29746 17.3874 6.53646C17.6081 6.77527 17.9151 6.91666 18.2404 6.92917L18.2404 6.92919Z" fill="url(#paint1_linear_401_1804)"/>
<defs>
<linearGradient id="paint0_linear_401_1804" x1="26.9" y1="-2.62031" x2="11.4974" y2="31.2993" gradientUnits="userSpaceOnUse">
<stop stop-color="#00FFB7"/>
<stop offset="1" stop-color="#005B42"/>
</linearGradient>
<linearGradient id="paint1_linear_401_1804" x1="19.81" y1="4.21194" x2="18.2379" y2="7.67609" gradientUnits="userSpaceOnUse">
<stop stop-color="#00FFB7"/>
<stop offset="1" stop-color="#005B42"/>
</linearGradient>
</defs>
</svg>
