<svg width="24" height="24" viewBox="0 0 24 24" fill="none" xmlns="http://www.w3.org/2000/svg">
<path d="M11.2281 7.05386C11.242 6.9413 11.2708 6.83092 11.3139 6.726L11.3599 6.61508V6.6149C11.4616 6.36815 11.4814 6.09559 11.4162 5.83682C11.3512 5.57806 11.2045 5.34697 10.998 5.17711L9.99528 4.35373C9.82308 4.21262 9.60614 4.13643 9.38298 4.13898C9.15983 4.14152 8.9449 4.22244 8.77581 4.36755C8.24714 4.82123 7.51688 5.55076 7.11607 6.40412C6.77897 7.1249 6.82152 7.96518 7.2302 8.64835C7.38523 8.90874 7.55506 9.16003 7.7384 9.40153C8.05742 9.83067 8.52582 10.1256 9.05193 10.2289C9.44399 10.2974 9.843 10.3196 10.2402 10.2951H10.255C10.889 10.2558 11.3461 9.67645 11.2663 9.04877C11.1821 8.37454 11.1494 7.68098 11.2281 7.05386L11.2281 7.05386Z" fill="url(#paint0_linear_401_181)"/>
<path d="M5.33363 8.84314C5.02283 8.57693 4.61067 8.45965 4.20565 8.52202C3.8008 8.58439 3.44342 8.82023 3.22796 9.16753C3.20038 9.21281 3.18705 9.24081 3.18705 9.24081C2.86657 9.83921 2.65856 10.4913 2.57348 11.1643C2.44237 12.2247 2.88556 13.2752 3.73835 13.9238C3.81231 13.9805 3.88791 14.036 3.96534 14.0904C4.29568 14.3233 4.70125 14.4253 5.103 14.3762C5.50475 14.3273 5.87379 14.1309 6.13787 13.8256L6.15174 13.8093C6.63437 13.2354 7.03486 12.8088 7.28483 12.3684C7.44607 12.0776 7.51163 11.7438 7.47218 11.4139C7.43292 11.0843 7.29067 10.7749 7.06533 10.5298C6.52497 9.93144 5.94646 9.3679 5.33364 8.84314L5.33363 8.84314Z" fill="url(#paint1_linear_401_181)"/>
<path d="M15.7138 4.68525C15.2812 4.46232 14.6488 4.3023 14.1344 4.84509C14.0533 4.93291 13.9829 5.03002 13.9248 5.13439C13.7075 5.51479 12.9962 6.77435 12.671 7.56356C12.671 7.56356 11.9782 9.53394 13.4758 9.95652C14.1777 10.1545 14.6205 10.374 14.8927 10.5511H14.8928C15.0278 10.6404 15.1885 10.6833 15.3503 10.6729C15.5121 10.6626 15.666 10.5998 15.7885 10.494C16.4291 9.93648 17.4722 8.88202 17.5833 7.85303C17.5833 7.85303 17.5929 6.56745 16.4441 5.26461V5.26479C16.2391 5.02804 15.9914 4.83147 15.7139 4.68529L15.7138 4.68525Z" fill="url(#paint2_linear_401_181)"/>
<path d="M16.87 11.3C17.4197 10.7501 18.2925 9.8433 18.9664 8.98594C19.3666 8.47678 20.1276 8.41715 20.5861 8.87448C21.1761 9.46199 21.7749 10.5139 21.6706 12.3366C21.6567 12.587 21.5718 12.8283 21.4257 13.0325C21.076 13.5202 20.2957 14.3563 19.0226 14.4383C18.8051 14.4508 18.5885 14.4001 18.3992 14.2926C18.21 14.1852 18.056 14.0252 17.956 13.8324C17.733 13.4036 17.3685 12.7999 16.868 12.2826C16.7387 12.1513 16.6664 11.9748 16.6667 11.791C16.6671 11.6069 16.7402 11.4307 16.87 11.3L16.87 11.3Z" fill="url(#paint3_linear_401_181)"/>
<path d="M2.86064 8.19979C2.9598 8.08378 3.07429 7.95904 3.20376 7.83321C3.3913 7.65083 3.64933 7.559 3.91026 7.58155C3.95628 7.58555 4.00541 7.59064 4.05599 7.59792C4.15478 7.61065 4.25302 7.57064 4.31456 7.49263C4.3761 7.41463 4.39199 7.31025 4.3562 7.21751C4.07005 6.47034 3.93272 5.67498 3.95172 4.87548C3.95811 4.74074 3.87502 4.61782 3.74719 4.57309C3.61955 4.52817 3.4773 4.57218 3.39749 4.6811C3.19736 4.94585 3.01748 5.22532 2.85952 5.517C2.64185 5.91958 2.49302 6.35546 2.41942 6.80676C2.35186 7.20153 2.31771 7.60119 2.31716 8.00161C2.31552 8.13127 2.39623 8.24782 2.5184 8.29237C2.64075 8.33692 2.77789 8.29983 2.86061 8.19982L2.86064 8.19979Z" fill="url(#paint4_linear_401_181)"/>
<path d="M8.17008 3.13618C8.22633 2.42341 8.47376 1.02579 9.52452 0.128251V0.128069C9.62642 0.0424265 9.7683 0.0215115 9.89083 0.0738805C10.0134 0.126431 10.0954 0.243532 10.1028 0.376093C10.1375 0.994699 10.2429 1.97118 10.5533 2.86327C10.5873 2.96019 10.5625 3.06802 10.4894 3.14057C10.4164 3.21294 10.3081 3.23749 10.2108 3.2033L9.91165 3.09638C9.64961 3.00219 9.36054 3.01674 9.10946 3.13675L8.55671 3.40005V3.39987C8.4696 3.44223 8.36624 3.4346 8.28645 3.38005C8.20646 3.32549 8.16209 3.23239 8.17012 3.1362L8.17008 3.13618Z" fill="url(#paint5_linear_401_181)"/>
<path d="M16.329 3.13639C16.2012 2.3834 15.8044 0.922186 14.6019 0.0682699H14.6017C14.4854 -0.013556 14.3326 -0.0224657 14.2075 0.0449948C14.0822 0.112455 14.0062 0.244835 14.0112 0.386482C14.0327 1.04838 14.0143 2.0952 13.7698 3.07219H13.7699C13.7429 3.17893 13.78 3.29167 13.8651 3.36186C13.9502 3.43223 14.0683 3.44732 14.1688 3.40114L14.4755 3.25912V3.25894C14.7453 3.1342 15.0537 3.1222 15.3325 3.22548L15.9461 3.45314V3.45296C16.0423 3.48842 16.1504 3.47005 16.2293 3.40477C16.3084 3.33949 16.3464 3.23712 16.329 3.13638L16.329 3.13639Z" fill="url(#paint6_linear_401_181)"/>
<path d="M21.1982 7.65021C21.0871 6.99651 20.7431 5.72927 19.7 4.98847C19.599 4.91865 19.4672 4.91138 19.3591 4.96974C19.251 5.02811 19.1851 5.14212 19.1887 5.2645C19.2077 5.83781 19.1918 6.74722 18.9796 7.59489V7.59471C18.9559 7.68745 18.988 7.78546 19.062 7.84637C19.1361 7.90747 19.2387 7.92038 19.3259 7.87983L19.5923 7.75655L19.5921 7.75673C19.8258 7.64872 20.0932 7.63817 20.3346 7.72763L20.8664 7.92511C20.9498 7.95566 21.0435 7.93947 21.1118 7.88292C21.1803 7.82619 21.2131 7.73764 21.1982 7.65017V7.65021Z" fill="url(#paint7_linear_401_181)"/>
<path d="M20.0459 18.6759C19.9877 18.0137 19.5932 17.4269 19.0003 17.1211C18.4136 16.8168 17.8758 16.427 17.405 15.9644C16.9153 15.4734 16.517 14.8995 16.229 14.2699C15.82 13.3942 14.6144 11.5027 11.863 11.5027C9.11163 11.5027 7.90656 13.3942 7.49644 14.2699C7.20828 14.8995 6.80999 15.4734 6.32044 15.9644C5.84969 16.4272 5.3119 16.817 4.72516 17.1211C4.1324 17.4271 3.73779 18.0137 3.67955 18.6759C3.55793 20.0648 3.74346 21.1778 4.07727 22.0617C4.7712 23.8983 7.01016 24.5682 8.64181 23.467C10.2734 22.3658 11.863 22.2359 11.863 22.2359C11.863 22.2359 13.4532 22.3672 15.0843 23.467C16.7154 24.5667 18.9549 23.8983 19.6488 22.0617C19.9821 21.178 20.1676 20.0649 20.046 18.6759H20.0459ZM14.7068 18.6219L12.5911 20.6981V20.6983C12.4532 20.834 12.2706 20.9151 12.0772 20.9265C11.8839 20.9382 11.6928 20.8793 11.5398 20.7609L8.2302 18.2112C8.05854 18.0788 7.94843 17.8828 7.92506 17.668C7.9015 17.4531 7.96688 17.2382 8.10584 17.0722L11.4268 13.1156V13.1158C11.528 12.995 11.6733 12.9192 11.8305 12.9054C11.9879 12.8914 12.1443 12.9403 12.2653 13.0414L13.6873 14.2277C13.7401 14.271 13.7556 14.345 13.7249 14.4059C13.6943 14.4666 13.6254 14.4984 13.5589 14.4822L12.2157 14.1651L12.2159 14.1649C11.9993 14.1137 11.7736 14.2018 11.6498 14.386L9.92104 16.9501V16.9499C9.72474 17.2409 9.78902 17.6337 10.0679 17.8477L11.3947 18.8659C11.6588 19.0689 12.0326 19.0472 12.2711 18.815L12.8627 18.2366C12.9487 18.1524 12.9973 18.0375 12.9978 17.9175C12.9982 17.7973 12.9505 17.682 12.8653 17.5971L12.7747 17.5069V17.5071C12.7139 17.4458 12.631 17.4114 12.5446 17.4114C12.4582 17.4114 12.3753 17.4458 12.3145 17.5071C12.1144 17.708 11.7915 17.7185 11.5788 17.5309C11.366 17.3434 11.3372 17.023 11.5132 16.8008L12.0921 16.0631C12.2376 15.876 12.4559 15.7592 12.6927 15.7416C12.9296 15.7241 13.163 15.8074 13.3346 15.9709L14.6967 17.2687C14.8822 17.4447 14.9879 17.6882 14.99 17.9433C14.992 18.1982 14.8897 18.4433 14.7069 18.6221L14.7068 18.6219Z" fill="url(#paint8_linear_401_181)"/>
<defs>
<linearGradient id="paint0_linear_401_181" x1="12.0053" y1="3.46574" x2="7.32002" y2="11.1023" gradientUnits="userSpaceOnUse">
<stop stop-color="#00FFB7"/>
<stop offset="1" stop-color="#005B42"/>
</linearGradient>
<linearGradient id="paint1_linear_401_181" x1="8.07938" y1="7.86335" x2="3.88004" y2="15.6176" gradientUnits="userSpaceOnUse">
<stop stop-color="#00FFB7"/>
<stop offset="1" stop-color="#005B42"/>
</linearGradient>
<linearGradient id="paint2_linear_401_181" x1="18.1962" y1="3.8015" x2="13.7153" y2="11.8791" gradientUnits="userSpaceOnUse">
<stop stop-color="#00FFB7"/>
<stop offset="1" stop-color="#005B42"/>
</linearGradient>
<linearGradient id="paint3_linear_401_181" x1="22.2886" y1="7.92349" x2="18.136" y2="15.7305" gradientUnits="userSpaceOnUse">
<stop stop-color="#00FFB7"/>
<stop offset="1" stop-color="#005B42"/>
</linearGradient>
<linearGradient id="paint4_linear_401_181" x1="4.62371" y1="4.14566" x2="1.4785" y2="7.94128" gradientUnits="userSpaceOnUse">
<stop stop-color="#00FFB7"/>
<stop offset="1" stop-color="#005B42"/>
</linearGradient>
<linearGradient id="paint5_linear_401_181" x1="10.8582" y1="-0.323793" x2="8.24075" y2="3.76568" gradientUnits="userSpaceOnUse">
<stop stop-color="#00FFB7"/>
<stop offset="1" stop-color="#005B42"/>
</linearGradient>
<linearGradient id="paint6_linear_401_181" x1="16.6439" y1="-0.378933" x2="14.0081" y2="3.92256" gradientUnits="userSpaceOnUse">
<stop stop-color="#00FFB7"/>
<stop offset="1" stop-color="#005B42"/>
</linearGradient>
<linearGradient id="paint7_linear_401_181" x1="21.4712" y1="4.60194" x2="19.1851" y2="8.33164" gradientUnits="userSpaceOnUse">
<stop stop-color="#00FFB7"/>
<stop offset="1" stop-color="#005B42"/>
</linearGradient>
<linearGradient id="paint8_linear_401_181" x1="22.0701" y1="10.1382" x2="15.4991" y2="29.1752" gradientUnits="userSpaceOnUse">
<stop stop-color="#00FFB7"/>
<stop offset="1" stop-color="#005B42"/>
</linearGradient>
</defs>
</svg>
