<svg width="33" height="32" viewBox="0 0 33 32" fill="none" xmlns="http://www.w3.org/2000/svg">
<path d="M16.1029 16.8269C16.1571 16.8635 16.2148 16.8944 16.2749 16.9189C16.3351 16.9438 16.3975 16.9631 16.461 16.9766C16.5896 17.0019 16.7215 17.0019 16.8501 16.9766C16.9136 16.9631 16.976 16.9438 17.0362 16.9189C17.0963 16.8944 17.154 16.8635 17.2082 16.8269C17.317 16.7547 17.4103 16.6614 17.4825 16.5526C17.5186 16.4982 17.5494 16.4405 17.5745 16.3806C17.6748 16.1366 17.6748 15.8633 17.5745 15.6194C17.5494 15.5595 17.5186 15.5018 17.4825 15.4474C17.4103 15.3386 17.317 15.2453 17.2082 15.1731C17.1538 15.137 17.0961 15.1061 17.0362 15.081C16.7924 14.9795 16.5186 14.9795 16.275 15.081C16.215 15.1061 16.1574 15.137 16.103 15.1731C15.9941 15.2453 15.9009 15.3386 15.8287 15.4474C15.7925 15.5018 15.7617 15.5595 15.7366 15.6194C15.6872 15.7402 15.6614 15.8694 15.6602 16C15.6617 16.2635 15.767 16.5158 15.9535 16.7021C15.9986 16.749 16.0488 16.7909 16.103 16.827L16.1029 16.8269Z" fill="url(#paint0_linear_261_2918)"/>
<path d="M22.2622 7.15404C22.5573 7.15454 22.8374 7.02416 23.0272 6.79799C23.2168 6.57182 23.2963 6.27319 23.2441 5.98259C23.192 5.69199 23.0134 5.43974 22.7572 5.29358C21.1906 4.40148 19.4473 3.86434 17.6502 3.72017V0.995393C17.6502 0.639842 17.4607 0.311134 17.1525 0.133329C16.8446 -0.0444432 16.465 -0.0444432 16.1571 0.133329C15.849 0.311102 15.6594 0.639822 15.6594 0.995393V3.72293C13.8624 3.86736 12.119 4.40443 10.5525 5.29634C10.3233 5.42748 10.1553 5.64412 10.0858 5.89887C10.0164 6.15362 10.051 6.42567 10.1819 6.65483C10.3128 6.88425 10.5296 7.052 10.7844 7.1217C11.0391 7.19116 11.3109 7.15656 11.5403 7.02567C12.8055 6.30431 14.2094 5.85948 15.6594 5.72031V10.1815C15.6594 10.537 15.849 10.8657 16.1571 11.0435C16.465 11.2213 16.8446 11.2213 17.1526 11.0435C17.4607 10.8658 17.6503 10.537 17.6503 10.1815V5.72031C19.1003 5.85948 20.5041 6.30429 21.7693 7.02567C21.9198 7.11042 22.0895 7.15455 22.2623 7.15405L22.2622 7.15404Z" fill="url(#paint1_linear_261_2918)"/>
<path d="M21.7694 24.9744C20.5042 25.6958 19.1004 26.1406 17.6504 26.2798V21.8186C17.6504 21.4631 17.4608 21.1344 17.1526 20.9566C16.8447 20.7788 16.4651 20.7788 16.1572 20.9566C15.8491 21.1343 15.6595 21.4631 15.6595 21.8186V26.2798C14.2095 26.1406 12.8056 25.6958 11.5404 24.9744C11.2315 24.7982 10.8519 24.7999 10.5447 24.9792C10.2373 25.1585 10.0493 25.488 10.0508 25.8438C10.0525 26.1996 10.2436 26.5273 10.5525 26.7038C12.1191 27.5957 13.8624 28.1328 15.6594 28.2772V31.0047C15.6594 31.3603 15.849 31.689 16.1572 31.8668C16.4651 32.0446 16.8447 32.0446 17.1526 31.8668C17.4607 31.689 17.6503 31.3603 17.6503 31.0047V28.2772C19.4473 28.133 21.1907 27.596 22.7572 26.7038C23.0661 26.5273 23.2572 26.1995 23.259 25.8438C23.2605 25.488 23.0724 25.1585 22.765 24.9792C22.4579 24.7999 22.0783 24.7982 21.7693 24.9744H21.7694Z" fill="url(#paint2_linear_261_2918)"/>
<path d="M31.6598 15.0043H28.9323C28.7879 13.2072 28.2508 11.4639 27.3589 9.89725C27.1824 9.58833 26.8547 9.39727 26.499 9.39552C26.1432 9.39401 25.8137 9.58206 25.6344 9.88947C25.4551 10.1966 25.4534 10.5762 25.6296 10.8852C26.351 12.1507 26.7958 13.5543 26.935 15.0043H22.4739C22.1183 15.0043 21.7896 15.1939 21.6118 15.5021C21.4341 15.81 21.4341 16.1896 21.6118 16.4975C21.7896 16.8057 22.1183 16.9952 22.4739 16.9952H26.935C26.7958 18.4453 26.351 19.8489 25.6296 21.1144C25.4534 21.4233 25.4551 21.803 25.6344 22.1101C25.8137 22.4175 26.1431 22.6056 26.499 22.6041C26.8547 22.6023 27.1824 22.4112 27.3589 22.1023C28.2508 20.5357 28.7879 18.7923 28.9323 16.9953H31.6598C32.0154 16.9953 32.3441 16.8057 32.5219 16.4976C32.6996 16.1897 32.6996 15.81 32.5219 15.5021C32.3441 15.194 32.0154 15.0044 31.6598 15.0044V15.0043Z" fill="url(#paint3_linear_261_2918)"/>
<path d="M1.64967 16.9953H4.37715C4.52158 18.7923 5.05864 20.5357 5.95054 22.1023C6.12705 22.4112 6.45477 22.6023 6.81053 22.6041C7.16632 22.6056 7.4958 22.4175 7.67508 22.1101C7.85436 21.8029 7.85611 21.4233 7.67984 21.1144C6.9585 19.8489 6.51367 18.4453 6.37451 16.9952H10.8356C11.1911 16.9952 11.5198 16.8057 11.6976 16.4975C11.8754 16.1896 11.8754 15.81 11.6976 15.5021C11.5199 15.1939 11.1912 15.0043 10.8356 15.0043H6.37451C6.51367 13.5543 6.95848 12.1504 7.67984 10.8852C7.85611 10.5763 7.85436 10.1966 7.67508 9.88947C7.4958 9.58206 7.16634 9.39401 6.81053 9.39552C6.45473 9.39727 6.12705 9.58834 5.95054 9.89725C5.05864 11.4639 4.52158 13.2072 4.37715 15.0043H1.64967C1.29413 15.0043 0.965425 15.1938 0.787624 15.502C0.609855 15.8099 0.609855 16.1895 0.787624 16.4975C0.965393 16.8056 1.29411 16.9952 1.64967 16.9952V16.9953Z" fill="url(#paint4_linear_261_2918)"/>
<defs>
<linearGradient id="paint0_linear_261_2918" x1="17.8901" y1="14.7875" x2="16.612" y2="17.6005" gradientUnits="userSpaceOnUse">
<stop stop-color="#00FFB7"/>
<stop offset="1" stop-color="#005B42"/>
</linearGradient>
<linearGradient id="paint1_linear_261_2918" x1="24.8559" y1="-1.22028" x2="18.4766" y2="15.3823" gradientUnits="userSpaceOnUse">
<stop stop-color="#00FFB7"/>
<stop offset="1" stop-color="#005B42"/>
</linearGradient>
<linearGradient id="paint2_linear_261_2918" x1="24.855" y1="19.603" x2="18.4754" y2="36.2053" gradientUnits="userSpaceOnUse">
<stop stop-color="#00FFB7"/>
<stop offset="1" stop-color="#005B42"/>
</linearGradient>
<linearGradient id="paint3_linear_261_2918" x1="34.0057" y1="7.95341" x2="24.6238" y2="25.4359" gradientUnits="userSpaceOnUse">
<stop stop-color="#00FFB7"/>
<stop offset="1" stop-color="#005B42"/>
</linearGradient>
<linearGradient id="paint4_linear_261_2918" x1="13.1815" y1="7.95341" x2="3.79962" y2="25.4359" gradientUnits="userSpaceOnUse">
<stop stop-color="#00FFB7"/>
<stop offset="1" stop-color="#005B42"/>
</linearGradient>
</defs>
</svg>
