<svg width="24" height="24" viewBox="0 0 24 24" fill="none" xmlns="http://www.w3.org/2000/svg">
<path d="M11.5857 12.6202C11.6264 12.6476 11.6696 12.6708 11.7147 12.6892C11.7599 12.7078 11.8067 12.7223 11.8543 12.7325C11.9508 12.7515 12.0497 12.7515 12.1461 12.7325C12.1937 12.7223 12.2405 12.7078 12.2857 12.6892C12.3308 12.6708 12.3741 12.6476 12.4147 12.6202C12.4963 12.566 12.5662 12.4961 12.6204 12.4145C12.6475 12.3737 12.6706 12.3304 12.6894 12.2855C12.7646 12.1025 12.7646 11.8975 12.6894 11.7145C12.6706 11.6696 12.6475 11.6263 12.6204 11.5855C12.5662 11.5039 12.4963 11.434 12.4147 11.3798C12.3739 11.3527 12.3306 11.3296 12.2857 11.3108C12.1029 11.2346 11.8975 11.2346 11.7148 11.3108C11.6698 11.3296 11.6266 11.3527 11.5858 11.3798C11.5041 11.434 11.4342 11.5039 11.38 11.5855C11.353 11.6263 11.3298 11.6696 11.311 11.7145C11.274 11.8052 11.2546 11.902 11.2537 12C11.2548 12.1977 11.3338 12.3868 11.4737 12.5266C11.5075 12.5617 11.5451 12.5932 11.5858 12.6202L11.5857 12.6202Z" fill="url(#paint0_linear_401_2044)"/>
<path d="M16.2059 5.36553C16.4273 5.36591 16.6373 5.26812 16.7797 5.09849C16.9219 4.92887 16.9815 4.70489 16.9424 4.48694C16.9032 4.26899 16.7693 4.07981 16.5772 3.97019C15.4022 3.30111 14.0947 2.89826 12.747 2.79013V0.746545C12.747 0.479881 12.6048 0.233351 12.3737 0.0999971C12.1428 -0.0333324 11.858 -0.0333324 11.6271 0.0999971C11.396 0.233327 11.2538 0.479867 11.2538 0.746545V2.7922C9.90607 2.90052 8.59855 3.30332 7.42362 3.97226C7.25174 4.07061 7.12575 4.23309 7.07366 4.42415C7.02157 4.61522 7.04752 4.81925 7.14568 4.99112C7.24385 5.16319 7.40651 5.289 7.59757 5.34128C7.78863 5.39337 7.99248 5.36742 8.16453 5.26925C9.11344 4.72823 10.1663 4.39461 11.2538 4.29024V7.63611C11.2538 7.90277 11.396 8.1493 11.6271 8.28266C11.858 8.41599 12.1428 8.41599 12.3737 8.28266C12.6048 8.14933 12.747 7.90279 12.747 7.63611V4.29024C13.8345 4.39461 14.8874 4.72822 15.8363 5.26925C15.9491 5.33281 16.0764 5.36591 16.206 5.36554L16.2059 5.36553Z" fill="url(#paint1_linear_401_2044)"/>
<path d="M15.8356 18.7308C14.8867 19.2719 13.8338 19.6055 12.7463 19.7099V16.364C12.7463 16.0973 12.6041 15.8508 12.373 15.7174C12.1421 15.5841 11.8574 15.5841 11.6265 15.7174C11.3953 15.8508 11.2532 16.0973 11.2532 16.364V19.7099C10.1657 19.6055 9.11277 19.2719 8.16386 18.7308C7.93218 18.5986 7.64745 18.5999 7.4171 18.7344C7.18655 18.8689 7.04551 19.116 7.04664 19.3828C7.04795 19.6497 7.19125 19.8954 7.42293 20.0278C8.59786 20.6968 9.90537 21.0996 11.2531 21.2079V23.2536C11.2531 23.5202 11.3953 23.7667 11.6264 23.9001C11.8573 24.0334 12.1421 24.0334 12.373 23.9001C12.6041 23.7668 12.7463 23.5202 12.7463 23.2536V21.2079C14.094 21.0998 15.4015 20.697 16.5765 20.0278C16.8082 19.8954 16.9514 19.6497 16.9528 19.3828C16.9539 19.116 16.8129 18.8689 16.5823 18.7344C16.3519 18.5999 16.0672 18.5986 15.8355 18.7308H15.8356Z" fill="url(#paint2_linear_401_2044)"/>
<path d="M23.2534 11.2533H21.2078C21.0995 9.90549 20.6967 8.59795 20.0278 7.423C19.8954 7.19131 19.6496 7.04801 19.3828 7.0467C19.1159 7.04557 18.8688 7.18661 18.7343 7.41717C18.5999 7.64754 18.5986 7.93224 18.7308 8.16395C19.2718 9.11307 19.6054 10.1658 19.7098 11.2533H16.364C16.0973 11.2533 15.8508 11.3955 15.7174 11.6266C15.5841 11.8575 15.5841 12.1423 15.7174 12.3732C15.8508 12.6043 16.0973 12.7465 16.364 12.7465H19.7098C19.6054 13.834 19.2718 14.8867 18.7308 15.8359C18.5986 16.0675 18.5999 16.3523 18.7343 16.5826C18.8688 16.8132 19.1159 16.9542 19.3828 16.9531C19.6496 16.9518 19.8954 16.8085 20.0278 16.5768C20.6967 15.4019 21.0995 14.0943 21.2078 12.7465H23.2534C23.5201 12.7465 23.7666 12.6044 23.8999 12.3732C24.0333 12.1423 24.0333 11.8576 23.8999 11.6267C23.7666 11.3955 23.5201 11.2534 23.2534 11.2534V11.2533Z" fill="url(#paint3_linear_401_2044)"/>
<path d="M0.746531 12.7465H2.79214C2.90046 14.0943 3.30326 15.4018 3.97218 16.5767C4.10457 16.8084 4.35035 16.9517 4.61717 16.953C4.88402 16.9542 5.13113 16.8131 5.26559 16.5826C5.40004 16.3522 5.40136 16.0675 5.26916 15.8358C4.72815 14.8867 4.39453 13.834 4.29016 12.7464H7.63597C7.90263 12.7464 8.14915 12.6043 8.2825 12.3731C8.41583 12.1422 8.41583 11.8575 8.2825 11.6265C8.14918 11.3954 7.90264 11.2533 7.63597 11.2533H4.29016C4.39453 10.1657 4.72814 9.11281 5.26916 8.16389C5.40136 7.9322 5.40005 7.64747 5.26559 7.41711C5.13113 7.18655 4.88403 7.04551 4.61717 7.04664C4.35033 7.04795 4.10457 7.19125 3.97218 7.42294C3.30326 8.59789 2.90046 9.90543 2.79214 11.2532H0.746531C0.479872 11.2532 0.233346 11.3954 0.0999951 11.6265C-0.0333317 11.8574 -0.0333317 12.1422 0.0999951 12.3731C0.233322 12.6042 0.479858 12.7464 0.746531 12.7464V12.7465Z" fill="url(#paint4_linear_401_2044)"/>
<defs>
<linearGradient id="paint0_linear_401_2044" x1="11.9997" y1="11.2537" x2="11.9997" y2="12.7467" gradientUnits="userSpaceOnUse">
<stop stop-color="white"/>
<stop offset="0.848958" stop-color="#434343"/>
</linearGradient>
<linearGradient id="paint1_linear_401_2044" x1="12.0007" y1="0" x2="12.0007" y2="8.38265" gradientUnits="userSpaceOnUse">
<stop stop-color="white"/>
<stop offset="0.848958" stop-color="#434343"/>
</linearGradient>
<linearGradient id="paint2_linear_401_2044" x1="11.9997" y1="15.6174" x2="11.9997" y2="24.0001" gradientUnits="userSpaceOnUse">
<stop stop-color="white"/>
<stop offset="0.848958" stop-color="#434343"/>
</linearGradient>
<linearGradient id="paint3_linear_401_2044" x1="19.8087" y1="7.04669" x2="19.8087" y2="16.9531" gradientUnits="userSpaceOnUse">
<stop stop-color="white"/>
<stop offset="0.848958" stop-color="#434343"/>
</linearGradient>
<linearGradient id="paint4_linear_401_2044" x1="4.19125" y1="7.04663" x2="4.19125" y2="16.9531" gradientUnits="userSpaceOnUse">
<stop stop-color="white"/>
<stop offset="0.848958" stop-color="#434343"/>
</linearGradient>
</defs>
</svg>
