<svg width="24" height="24" viewBox="0 0 24 24" fill="none" xmlns="http://www.w3.org/2000/svg">
<path d="M21.7773 14.6289C20.6955 18.6484 17.1947 21.6871 12.9381 22.0799V20.1109C14.4184 19.9374 15.8233 19.3629 17.0012 18.4495C18.1789 17.5362 19.0849 16.3184 19.6213 14.9279C19.6791 14.7782 19.6592 14.6096 19.5682 14.4776C19.4772 14.3454 19.3269 14.2669 19.1663 14.2676H18.1856C17.9933 14.268 17.8194 14.3817 17.7422 14.5577C16.8672 16.5152 15.0576 17.894 12.938 18.2183V17.4341C12.938 16.9174 12.5336 16.4737 12.018 16.465V16.4652C11.7663 16.4603 11.5231 16.5571 11.3434 16.7334C11.1636 16.9098 11.0625 17.151 11.0625 17.4029V23.9637C11.372 23.9877 11.6845 23.9998 12.0003 24.0002C17.629 24.0002 22.3638 20.1046 23.6529 14.8677C23.6883 14.7229 23.6552 14.57 23.5631 14.4528C23.4711 14.3356 23.3302 14.2674 23.1813 14.2676H22.2455C22.0256 14.2681 21.8335 14.4163 21.7773 14.629L21.7773 14.6289Z" fill="url(#paint0_linear_401_349)"/>
<path d="M15.2617 11.0393C15.4266 10.638 15.5555 10.186 15.5721 9.73254C15.5771 9.57131 15.5172 9.41478 15.4056 9.29815C15.2942 9.18152 15.1404 9.11454 14.9792 9.11219C14.5202 9.10768 14.0576 9.21781 13.6456 9.36496H13.6454C12.9314 9.62729 12.2798 10.0357 11.7325 10.5641L9.95196 12.2641C9.90122 12.3125 9.8718 12.3789 9.87017 12.449C9.86873 12.5189 9.89491 12.5868 9.94348 12.6373L11.8161 14.5988H11.816C11.9165 14.704 12.0834 14.708 12.189 14.6078L13.9721 12.9098C14.5279 12.3833 14.9674 11.7462 15.2617 11.0393L15.2617 11.0393Z" fill="url(#paint1_linear_401_349)"/>
<path d="M9.46821 13.0902L11.3411 15.052C11.4416 15.1574 11.4178 15.3436 11.3324 15.425L10.9126 15.8258C10.8072 15.9264 10.6402 15.9226 10.5396 15.8171L8.66676 13.8553C8.5662 13.7499 8.59003 13.5638 8.67543 13.4823L9.0952 13.0815C9.20064 12.981 9.36765 12.9848 9.46821 13.0902Z" fill="url(#paint2_linear_401_349)"/>
<path d="M18.2177 11.0618H17.4336C16.9168 11.0618 16.4731 11.4662 16.4644 11.9818H16.4646C16.4597 12.2337 16.5565 12.4769 16.733 12.6565C16.9094 12.8363 17.1508 12.9374 17.4027 12.9373H23.9632C23.9872 12.6278 23.9993 12.3153 23.9997 11.9995C23.9997 6.37092 20.104 1.6362 14.867 0.347144C14.7222 0.311757 14.5693 0.344797 14.4521 0.436874C14.3349 0.528952 14.2667 0.669778 14.2668 0.818725V1.75448C14.2674 1.97439 14.4156 2.16649 14.6283 2.22264C18.6479 3.30445 21.6866 6.8052 22.0795 11.0616H20.1104C19.9369 9.58137 19.3624 8.17653 18.449 6.99867C17.5356 5.821 16.3178 4.91501 14.9273 4.37859C14.7776 4.32081 14.6089 4.34067 14.477 4.43167C14.3448 4.52266 14.2663 4.67306 14.267 4.83356V5.81429C14.2677 6.00638 14.3813 6.18007 14.5571 6.25771C16.5147 7.13264 17.8935 8.94222 18.2177 11.0618L18.2177 11.0618Z" fill="url(#paint3_linear_401_349)"/>
<path d="M5.78201 12.9373H6.56701C7.08376 12.9373 7.52752 12.5328 7.53621 12.0172C7.5409 11.7654 7.44413 11.5222 7.26773 11.3425C7.09116 11.1627 6.84976 11.0616 6.59791 11.0618H0.0364707C0.0124579 11.3712 0.000360981 11.6837 0 11.9995C0 17.6281 3.89568 22.3628 9.13267 23.6519C9.27747 23.6873 9.4304 23.6542 9.54757 23.5622C9.66475 23.4701 9.733 23.3292 9.73281 23.1803V22.2445C9.73227 22.0246 9.58404 21.8325 9.37136 21.7764C5.35181 20.6946 2.31305 17.1938 1.92018 12.9374H3.89175C4.06526 14.4177 4.63978 15.8225 5.55314 17.0004C6.46655 18.178 7.68432 19.084 9.0749 19.6204C9.22458 19.6782 9.39321 19.6584 9.52519 19.5674C9.65735 19.4764 9.73589 19.326 9.73517 19.1655V18.1847C9.73444 17.9926 9.62088 17.819 9.44503 17.7413C7.48663 16.8671 6.10667 15.0574 5.78188 12.9373L5.78201 12.9373Z" fill="url(#paint4_linear_401_349)"/>
<path d="M11.9997 3.50863e-05C6.37104 3.50863e-05 1.63623 3.89564 0.347144 9.13253C0.311757 9.27732 0.344797 9.43024 0.436876 9.54742C0.528956 9.66459 0.669785 9.73284 0.818735 9.73266H1.75451C1.97442 9.73211 2.16652 9.58389 2.22268 9.37121C3.30451 5.35174 6.80533 2.31304 11.0618 1.92018V3.89171C9.58155 4.06522 8.17668 4.63973 6.99881 5.55307C5.82111 6.46646 4.9151 7.6842 4.37867 9.07476C4.32089 9.22443 4.34075 9.39305 4.43175 9.52503C4.52275 9.65719 4.67314 9.73573 4.83365 9.73501H5.8144C6.0065 9.73429 6.18019 9.62072 6.25782 9.44488C7.13204 7.48651 8.94184 6.10659 11.062 5.7818V6.56679C11.062 7.08353 11.4664 7.52728 11.982 7.53597C12.2337 7.54066 12.4769 7.44407 12.6566 7.26768C12.8364 7.09129 12.9375 6.85008 12.9375 6.59824V0.0364698C12.628 0.0124575 12.3155 0.000360973 11.9997 0L11.9997 3.50863e-05Z" fill="url(#paint5_linear_401_349)"/>
<defs>
<linearGradient id="paint0_linear_401_349" x1="25.1898" y1="13.205" x2="20.0091" y2="27.9801" gradientUnits="userSpaceOnUse">
<stop stop-color="#00FFB7"/>
<stop offset="1" stop-color="#005B42"/>
</linearGradient>
<linearGradient id="paint1_linear_401_349" x1="16.2614" y1="8.50411" x2="12.7438" y2="16.4369" gradientUnits="userSpaceOnUse">
<stop stop-color="#00FFB7"/>
<stop offset="1" stop-color="#005B42"/>
</linearGradient>
<linearGradient id="paint2_linear_401_349" x1="11.7461" y1="12.693" x2="9.85527" y2="16.7358" gradientUnits="userSpaceOnUse">
<stop stop-color="#00FFB7"/>
<stop offset="1" stop-color="#005B42"/>
</linearGradient>
<linearGradient id="paint3_linear_401_349" x1="25.1757" y1="-1.04285" x2="15.7871" y2="14.9228" gradientUnits="userSpaceOnUse">
<stop stop-color="#00FFB7"/>
<stop offset="1" stop-color="#005B42"/>
</linearGradient>
<linearGradient id="paint4_linear_401_349" x1="10.9115" y1="9.68567" x2="1.52404" y2="25.6533" gradientUnits="userSpaceOnUse">
<stop stop-color="#00FFB7"/>
<stop offset="1" stop-color="#005B42"/>
</linearGradient>
<linearGradient id="paint5_linear_401_349" x1="14.4605" y1="-1.06286" x2="9.27757" y2="13.715" gradientUnits="userSpaceOnUse">
<stop stop-color="#00FFB7"/>
<stop offset="1" stop-color="#005B42"/>
</linearGradient>
</defs>
</svg>
