<svg width="24" height="24" viewBox="0 0 24 24" fill="none" xmlns="http://www.w3.org/2000/svg">
<path d="M9.74523 7.54559C9.42578 7.22662 9.25743 6.78649 9.28247 6.33573L9.38097 4.56732C9.40546 4.12776 9.24129 3.69853 8.93 3.38717L7.4189 1.87664C7.10906 1.56728 6.68274 1.40355 6.24555 1.42584L4.74263 1.50254C4.59768 1.50998 4.47088 1.6021 4.41882 1.73737C4.36675 1.87265 4.39922 2.02607 4.50172 2.12852L5.59031 3.21564C5.90542 3.53062 6.08248 3.95802 6.08248 4.40358C6.08248 4.84895 5.90543 5.27637 5.59031 5.59134C5.27503 5.90633 4.84765 6.08332 4.40192 6.08332C3.95619 6.08332 3.52881 5.90634 3.21372 5.59134L2.12512 4.50422C2.02263 4.40177 1.86916 4.36931 1.73383 4.42135C1.5985 4.47339 1.50635 4.60015 1.49891 4.74504L1.42218 6.2474C1.39987 6.68443 1.56368 7.11058 1.87315 7.42031L3.38425 8.93084C3.69572 9.24201 4.1251 9.40611 4.56484 9.38164L6.33391 9.28318C6.78489 9.25815 7.22514 9.42643 7.54423 9.74576L10.8997 13.0994L14.2521 16.4536C14.5715 16.7726 14.7399 17.2127 14.7148 17.6635L14.6163 19.4319C14.5918 19.8714 14.756 20.3007 15.0673 20.612L16.5784 22.1225C16.8882 22.4319 17.3146 22.5956 17.7517 22.5733L19.2547 22.4966C19.3996 22.4892 19.5264 22.3971 19.5785 22.2618C19.6305 22.1265 19.5981 21.9731 19.4956 21.8707L18.4095 20.7835C18.0944 20.4686 17.9173 20.0412 17.9173 19.5956C17.9173 19.1502 18.0944 18.7228 18.4095 18.4078C18.7248 18.0929 19.1522 17.9159 19.5979 17.9159C20.0436 17.9159 20.471 18.0928 20.7861 18.4078L21.8745 19.4959H21.8747C21.9772 19.5983 22.1307 19.6308 22.266 19.5789C22.4013 19.5269 22.4935 19.4 22.5009 19.2553L22.5777 17.7529C22.6 17.3157 22.4362 16.8895 22.1267 16.58L20.6156 15.0694C20.3041 14.7581 19.8747 14.5942 19.435 14.6185L17.6659 14.7169V14.7171C17.215 14.7421 16.7747 14.5739 16.4556 14.2545L13.1002 10.9034L9.74523 7.54559Z" fill="url(#paint0_linear_401_2024)"/>
<path d="M7.56588 16.432C9.05158 17.9172 11.1827 18.5596 13.2422 18.1431C13.5003 18.091 13.6908 17.8713 13.7055 17.6085C13.7142 17.4457 13.6536 17.2866 13.5383 17.1713L12.9201 16.5533H12.9202C12.7261 16.3624 12.4607 16.2619 12.1888 16.2761C10.989 16.3292 9.8222 15.876 8.97305 15.027C8.1239 14.1782 7.67055 13.0118 7.72354 11.8126C7.73787 11.5408 7.63719 11.2754 7.44617 11.0815L6.82797 10.4635H6.82815C6.71259 10.3484 6.55368 10.2876 6.39078 10.2965C6.12774 10.3103 5.90716 10.5 5.85435 10.758C5.43766 12.8166 6.08038 14.9469 7.56607 16.4322L7.56588 16.432Z" fill="url(#paint1_linear_401_2024)"/>
<path d="M6.84839 17.1492C5.14716 15.4468 4.39726 13.0144 4.84461 10.6501C4.85658 10.5852 4.83808 10.5185 4.79454 10.469C4.75101 10.4195 4.68715 10.3926 4.62112 10.3963C4.08887 10.4244 3.56099 10.2856 3.11109 9.99967C2.88451 9.85678 2.6133 9.80256 2.3492 9.84735L0.515573 10.1571C0.218071 10.2073 0.000185759 10.4648 0 10.7664V13.236C0.00018144 13.5375 0.218048 13.795 0.515573 13.8453L3.21414 14.3022C3.42348 15.1036 3.74183 15.8724 4.16053 16.5871L2.57578 18.8161C2.40072 19.062 2.42884 19.3982 2.64235 19.6118L4.38965 21.3585C4.60316 21.5717 4.93949 21.5998 5.18548 21.4248L7.41533 19.8407C8.13027 20.2592 8.8994 20.5776 9.70104 20.7867L10.1582 23.4843C10.2084 23.7817 10.466 23.9995 10.7677 23.9997H13.2383C13.5401 23.9995 13.7975 23.7817 13.8478 23.4843L14.1576 21.6513C14.2024 21.3875 14.1482 21.1162 14.0052 20.8897C13.7197 20.4393 13.5818 19.9109 13.6112 19.3783C13.6147 19.3123 13.5878 19.2484 13.5383 19.2049C13.4888 19.1614 13.422 19.1429 13.3573 19.1549C10.9894 19.6039 8.55261 18.8531 6.84827 17.1493L6.84839 17.1492Z" fill="url(#paint2_linear_401_2024)"/>
<path d="M16.4342 7.56759C14.9485 6.08245 12.8173 5.43996 10.7578 5.85651C10.4997 5.90855 10.3092 6.12834 10.2945 6.39111C10.2858 6.55395 10.3464 6.71298 10.4618 6.82831L11.08 7.44629H11.0798C11.2739 7.63724 11.5393 7.73769 11.8112 7.72355C13.011 7.67042 14.1778 8.12358 15.027 8.97259C15.8761 9.82142 16.3295 10.9878 16.2765 12.187C16.2622 12.4588 16.3628 12.7243 16.5539 12.9181L17.1721 13.5361H17.1719C17.2874 13.6512 17.4464 13.712 17.6093 13.7031C17.8723 13.6893 18.0929 13.4996 18.1457 13.2416C18.5624 11.183 17.9197 9.05273 16.434 7.5674L16.4342 7.56759Z" fill="url(#paint3_linear_401_2024)"/>
<path d="M18.8188 2.57481L16.589 4.15897C15.874 3.74044 15.1049 3.42202 14.3033 3.21293L13.8461 0.51538C13.7959 0.21799 13.5383 0.000185689 13.2366 0H10.7644C10.4627 0.000181325 10.2053 0.217966 10.1549 0.51538L9.84506 2.34832C9.80044 2.61216 9.85468 2.88342 9.99744 3.10992C10.2832 3.56036 10.421 4.08878 10.3916 4.62138C10.388 4.68739 10.4149 4.75122 10.4644 4.79474C10.5139 4.83826 10.5807 4.85676 10.6456 4.84479C13.0124 4.39489 15.4484 5.14472 17.1518 6.84768C18.8554 8.55063 19.6053 10.9858 19.1551 13.3519C19.1431 13.4166 19.1616 13.4834 19.2051 13.5329C19.2487 13.5824 19.3125 13.6092 19.3786 13.6058C19.9106 13.5769 20.4385 13.7149 20.8886 14.0002C21.1152 14.1431 21.3864 14.1973 21.6505 14.1525L23.4841 13.8428C23.7816 13.7925 23.9995 13.535 23.9997 13.2335V10.7653C23.9995 10.4637 23.7816 10.2064 23.4841 10.156L20.7855 9.69904C20.5762 8.8977 20.2578 8.12904 19.8391 7.41418L21.4239 5.18517C21.599 4.93928 21.5708 4.60308 21.3573 4.38963L19.61 2.64299C19.3976 2.43174 19.0642 2.4029 18.8187 2.575L18.8188 2.57481Z" fill="url(#paint4_linear_401_2024)"/>
<defs>
<linearGradient id="paint0_linear_401_2024" x1="11.9999" y1="1.42383" x2="11.9999" y2="22.5754" gradientUnits="userSpaceOnUse">
<stop stop-color="white"/>
<stop offset="0.848958" stop-color="#434343"/>
</linearGradient>
<linearGradient id="paint1_linear_401_2024" x1="9.71804" y1="10.2957" x2="9.71804" y2="18.2677" gradientUnits="userSpaceOnUse">
<stop stop-color="white"/>
<stop offset="0.848958" stop-color="#434343"/>
</linearGradient>
<linearGradient id="paint2_linear_401_2024" x1="7.08647" y1="9.83203" x2="7.08647" y2="23.9997" gradientUnits="userSpaceOnUse">
<stop stop-color="white"/>
<stop offset="0.848958" stop-color="#434343"/>
</linearGradient>
<linearGradient id="paint3_linear_401_2024" x1="14.282" y1="5.73193" x2="14.282" y2="13.704" gradientUnits="userSpaceOnUse">
<stop stop-color="white"/>
<stop offset="0.848958" stop-color="#434343"/>
</linearGradient>
<linearGradient id="paint4_linear_401_2024" x1="16.9148" y1="0" x2="16.9148" y2="14.1678" gradientUnits="userSpaceOnUse">
<stop stop-color="white"/>
<stop offset="0.848958" stop-color="#434343"/>
</linearGradient>
</defs>
</svg>
