<svg width="33" height="32" viewBox="0 0 33 32" fill="none" xmlns="http://www.w3.org/2000/svg">
<path d="M13.647 10.0608C13.221 9.63549 12.9966 9.04865 13.0299 8.44764L13.1613 6.08976C13.1939 5.50368 12.975 4.93137 12.56 4.51623L10.5452 2.50219C10.1321 2.08971 9.56364 1.8714 8.98072 1.90112L6.97682 2.00339C6.78357 2.0133 6.61449 2.13613 6.54508 2.3165C6.47566 2.49687 6.51895 2.70142 6.65561 2.83803L8.10707 4.28751C8.52721 4.70749 8.7633 5.27736 8.7633 5.87144C8.7633 6.46526 8.52723 7.03515 8.10707 7.45512C7.68669 7.8751 7.11685 8.1111 6.52255 8.1111C5.92825 8.1111 5.3584 7.87512 4.93828 7.45512L3.48682 6.00563C3.35016 5.86903 3.14554 5.82575 2.9651 5.89514C2.78466 5.96452 2.66179 6.13353 2.65187 6.32672L2.54956 8.32987C2.51981 8.91257 2.73822 9.48077 3.15086 9.89374L5.16566 11.9078C5.58095 12.3227 6.15346 12.5415 6.73978 12.5089L9.09854 12.3776C9.69983 12.3442 10.2868 12.5686 10.7123 12.9944L15.1862 17.4659L19.6561 21.9381C20.082 22.3634 20.3065 22.9503 20.2731 23.5513L20.1418 25.9091C20.1091 26.4952 20.328 27.0675 20.743 27.4827L22.7578 29.4967C23.171 29.9092 23.7394 30.1275 24.3223 30.0978L26.3262 29.9955C26.5195 29.9856 26.6885 29.8628 26.758 29.6824C26.8274 29.502 26.7841 29.2975 26.6474 29.1609L25.1993 27.7114C24.7792 27.2914 24.5431 26.7215 24.5431 26.1275C24.5431 25.5336 24.7792 24.9638 25.1993 24.5438C25.6197 24.1238 26.1895 23.8878 26.7838 23.8878C27.3781 23.8878 27.948 24.1238 28.3681 24.5438L29.8194 25.9945H29.8196C29.9563 26.1311 30.1609 26.1744 30.3413 26.1053C30.5218 26.0359 30.6446 25.8666 30.6546 25.6737L30.7569 23.6705C30.7866 23.0876 30.5682 22.5194 30.1556 22.1066L28.1408 20.0926C27.7255 19.6775 27.153 19.4589 26.5667 19.4913L24.2079 19.6226V19.6228C23.6066 19.6562 23.0196 19.4318 22.5941 19.006L18.1202 14.5379L13.647 10.0608Z" fill="url(#paint0_linear_261_2814)"/>
<path d="M10.7412 21.9094C12.7221 23.8895 15.5636 24.7462 18.3096 24.1908C18.6538 24.1214 18.9077 23.8284 18.9273 23.478C18.9389 23.2609 18.8582 23.0488 18.7043 22.8951L17.8801 22.0711H17.8803C17.6215 21.8165 17.2676 21.6825 16.9051 21.7014C15.3053 21.7722 13.7496 21.168 12.6174 20.036C11.4852 18.9042 10.8807 17.3491 10.9514 15.7502C10.9705 15.3878 10.8362 15.0338 10.5815 14.7753L9.75727 13.9514H9.75752C9.60344 13.7978 9.39156 13.7168 9.17436 13.7287C8.82364 13.7471 8.52953 14 8.45913 14.344C7.90354 17.0887 8.7605 19.9292 10.7414 21.9096L10.7412 21.9094Z" fill="url(#paint1_linear_261_2814)"/>
<path d="M9.78548 22.8657C7.51718 20.5958 6.51731 17.3525 7.11378 14.2002C7.12974 14.1136 7.10507 14.0246 7.04702 13.9586C6.98897 13.8926 6.90383 13.8568 6.81579 13.8617C6.10613 13.8992 5.40229 13.7142 4.80241 13.3329C4.50031 13.1424 4.1387 13.0701 3.78656 13.1298L1.34173 13.5428C0.945059 13.6097 0.654545 13.9531 0.654297 14.3552V17.648C0.654539 18.0501 0.945028 18.3934 1.34173 18.4604L4.93981 19.0697C5.21893 20.1381 5.6434 21.1632 6.20167 22.1161L4.08867 25.0882C3.85526 25.416 3.89275 25.8643 4.17743 26.1491L6.50716 28.478C6.79185 28.7623 7.24028 28.7998 7.56827 28.5665L10.5414 26.4542C11.4947 27.0123 12.5202 27.4369 13.589 27.7156L14.1985 31.3124C14.2655 31.7089 14.609 31.9993 15.0112 31.9995H18.3053C18.7078 31.9993 19.051 31.7089 19.118 31.3124L19.5311 28.8685C19.5909 28.5167 19.5185 28.155 19.3279 27.853C18.9472 27.2524 18.7634 26.5478 18.8026 25.8377C18.8072 25.7497 18.7714 25.6646 18.7054 25.6066C18.6393 25.5485 18.5503 25.5239 18.464 25.5398C15.3068 26.1385 12.0578 25.1375 9.78533 22.8657L9.78548 22.8657Z" fill="url(#paint2_linear_261_2814)"/>
<path d="M22.5662 10.0901C20.5852 8.10993 17.7437 7.25329 14.9978 7.80868C14.6536 7.87807 14.3996 8.17112 14.38 8.52148C14.3684 8.7386 14.4492 8.95064 14.603 9.10442L15.4273 9.92838H15.427C15.6859 10.183 16.0397 10.3169 16.4023 10.2981C18.002 10.2272 19.5578 10.8314 20.69 11.9635C21.8222 13.0952 22.4266 14.6504 22.356 16.2493C22.3369 16.6117 22.4711 16.9657 22.7258 17.2241L23.5501 18.0481H23.5498C23.7039 18.2016 23.9158 18.2826 24.133 18.2708C24.4837 18.2524 24.7778 17.9995 24.8482 17.6555C25.4038 14.9107 24.5468 12.0703 22.5659 10.0899L22.5662 10.0901Z" fill="url(#paint3_linear_261_2814)"/>
<path d="M25.747 3.43308L22.7739 5.54529C21.8207 4.98726 20.7951 4.56269 19.7263 4.28391L19.1168 0.687173C19.0498 0.290653 18.7063 0.000247585 18.3041 0H15.0078C14.6056 0.000241767 14.2624 0.290622 14.1951 0.687173L13.782 3.13109C13.7225 3.48288 13.7948 3.84457 13.9852 4.14656C14.3661 4.74715 14.55 5.4517 14.5108 6.16184C14.5059 6.24985 14.5417 6.33496 14.6078 6.39299C14.6738 6.45101 14.7628 6.47567 14.8494 6.45972C18.0051 5.85986 21.2531 6.85962 23.5243 9.13023C25.7958 11.4008 26.7957 14.6477 26.1954 17.8025C26.1794 17.8888 26.2041 17.9778 26.2621 18.0438C26.3202 18.1098 26.4053 18.1456 26.4933 18.141C27.2028 18.1026 27.9066 18.2866 28.5067 18.6669C28.8088 18.8574 29.1704 18.9297 29.5226 18.87L31.9674 18.457C32.3641 18.3901 32.6546 18.0467 32.6548 17.6446V14.3537C32.6546 13.9516 32.3641 13.6086 31.9674 13.5413L28.3693 12.932C28.0902 11.8636 27.6657 10.8387 27.1075 9.88557L29.2205 6.91356C29.4539 6.5857 29.4164 6.13744 29.1317 5.85284L26.802 3.52399C26.5187 3.24232 26.0742 3.20387 25.7469 3.43333L25.747 3.43308Z" fill="url(#paint4_linear_261_2814)"/>
<defs>
<linearGradient id="paint0_linear_261_2814" x1="34.1686" y1="-1.18064" x2="16.0737" y2="38.6829" gradientUnits="userSpaceOnUse">
<stop stop-color="#00FFB7"/>
<stop offset="1" stop-color="#005B42"/>
</linearGradient>
<linearGradient id="paint1_linear_261_2814" x1="20.2136" y1="12.567" x2="13.3945" y2="27.5926" gradientUnits="userSpaceOnUse">
<stop stop-color="#00FFB7"/>
<stop offset="1" stop-color="#005B42"/>
</linearGradient>
<linearGradient id="paint2_linear_261_2814" x1="21.835" y1="11.047" x2="9.71472" y2="37.7482" gradientUnits="userSpaceOnUse">
<stop stop-color="#00FFB7"/>
<stop offset="1" stop-color="#005B42"/>
</linearGradient>
<linearGradient id="paint3_linear_261_2814" x1="26.2995" y1="6.48207" x2="19.4804" y2="21.5077" gradientUnits="userSpaceOnUse">
<stop stop-color="#00FFB7"/>
<stop offset="1" stop-color="#005B42"/>
</linearGradient>
<linearGradient id="paint4_linear_261_2814" x1="34.9378" y1="-2.06244" x2="22.8155" y2="24.637" gradientUnits="userSpaceOnUse">
<stop stop-color="#00FFB7"/>
<stop offset="1" stop-color="#005B42"/>
</linearGradient>
</defs>
</svg>
