<svg width="21" height="21" viewBox="0 0 21 21" fill="none" xmlns="http://www.w3.org/2000/svg">
<path d="M2 0C0.89543 0 0 0.895431 0 2V19C0 20.1046 0.895431 21 2 21H19C20.1046 21 21 20.1046 21 19V2C21 0.89543 20.1046 0 19 0H2ZM5.15002 4.12848C5.9818 4.13784 6.80115 4.71167 6.8368 5.70502C6.85458 6.58833 6.0848 7.26114 5.12823 7.28156H5.10517C4.28167 7.27206 3.47746 6.68383 3.44019 5.70502C3.45193 4.83154 4.18616 4.1492 5.15002 4.12848ZM14.0735 8.30183C14.9879 8.3075 15.851 8.57878 16.5601 9.3016C17.2969 10.1234 17.5335 11.2565 17.5598 12.4085V17.6483H14.54V12.7648C14.5333 11.8495 14.2198 10.737 13.0084 10.7C12.2984 10.7075 11.7977 11.1201 11.4549 11.8099C11.3613 12.032 11.3478 12.2872 11.3434 12.5418V17.6483H8.32489C8.33644 15.0954 8.35231 12.5428 8.34668 9.98987C8.34668 9.26471 8.33969 8.77643 8.32489 8.52485H11.3434V9.81171C11.5996 9.4473 11.8838 9.10172 12.2649 8.82348C12.782 8.4545 13.4031 8.31304 14.0735 8.30183ZM3.61835 8.52485H6.63684V17.6483H3.61835V8.52485Z" fill="white"/>
</svg>
