<svg width="22" height="22" viewBox="0 0 22 22" fill="none" xmlns="http://www.w3.org/2000/svg">
<path d="M4.5263 12.6353L4.52721 12.6334C5.03637 11.6045 5.03637 10.4047 4.52722 9.37574L4.52655 9.3744L2.93155 6.17524L2.93129 6.17472C1.78193 3.87599 4.25869 1.45006 6.53061 2.65087C6.5308 2.65097 6.53099 2.65107 6.53118 2.65117L7.94158 3.40216L7.94151 3.40231L7.95297 3.40804C8.05135 3.45723 8.11925 3.53318 8.15381 3.61765L8.15706 3.6256L8.16058 3.63344L13.3751 15.2264C13.3753 15.2268 13.3755 15.2272 13.3757 15.2276C13.4808 15.467 13.3814 15.7405 13.1617 15.8547L13.1596 15.8559L6.5229 19.3484L6.52139 19.3492C4.26106 20.5485 1.78068 18.1265 2.93129 15.8253L4.5263 12.6353Z" stroke="url(#paint0_linear_698_1569)"/>
<path d="M11.9876 6.50465L11.9874 6.50422C11.7973 6.08339 12.2522 5.66324 12.6531 5.87702L12.6553 5.8782L17.9445 8.66487L17.9446 8.66493C19.8342 9.65989 19.8344 12.3581 17.9449 13.3532C17.9448 13.3533 17.9447 13.3534 17.9446 13.3534L16.0785 14.3322C15.8283 14.4581 15.5262 14.3553 15.4062 14.0934C15.4061 14.0931 15.4059 14.0928 15.4058 14.0925L11.9876 6.50465Z" stroke="url(#paint1_linear_698_1569)"/>
<defs>
<linearGradient id="paint0_linear_698_1569" x1="15.341" y1="-0.171808" x2="0.604244" y2="20.6731" gradientUnits="userSpaceOnUse">
<stop stop-color="#00FFB7"/>
<stop offset="1" stop-color="#005B42"/>
</linearGradient>
<linearGradient id="paint1_linear_698_1569" x1="20.8794" y1="4.27227" x2="14.2321" y2="17.1546" gradientUnits="userSpaceOnUse">
<stop stop-color="#00FFB7"/>
<stop offset="1" stop-color="#005B42"/>
</linearGradient>
</defs>
</svg>
