<svg width="20" height="20" viewBox="0 0 20 20" fill="none" xmlns="http://www.w3.org/2000/svg">
<path d="M18.3334 9.14169V10.8584C18.3334 11.3167 17.9667 11.6917 17.5 11.7084H15.8667C14.9667 11.7084 14.1417 11.05 14.0667 10.15C14.0167 9.62502 14.2167 9.13335 14.5667 8.79169C14.875 8.47502 15.3 8.29169 15.7667 8.29169H17.5C17.9667 8.30835 18.3334 8.68335 18.3334 9.14169Z" fill="#616161"/>
<path d="M17.0584 12.9584H15.8667C14.2834 12.9584 12.9501 11.7667 12.8167 10.25C12.7417 9.38335 13.0584 8.51669 13.6917 7.90002C14.2251 7.35002 14.9667 7.04169 15.7667 7.04169H17.0584C17.3001 7.04169 17.5001 6.84169 17.4751 6.60002C17.2917 4.57502 15.9501 3.19169 13.9584 2.95835C13.7584 2.92502 13.5501 2.91669 13.3334 2.91669H5.83342C5.60008 2.91669 5.37508 2.93335 5.15841 2.96669C3.03341 3.23335 1.66675 4.81669 1.66675 7.08335V12.9167C1.66675 15.2167 3.53341 17.0834 5.83342 17.0834H13.3334C15.6667 17.0834 17.2751 15.625 17.4751 13.4C17.5001 13.1584 17.3001 12.9584 17.0584 12.9584ZM10.8334 8.12502H5.83342C5.49175 8.12502 5.20841 7.84169 5.20841 7.50002C5.20841 7.15835 5.49175 6.87502 5.83342 6.87502H10.8334C11.1751 6.87502 11.4584 7.15835 11.4584 7.50002C11.4584 7.84169 11.1751 8.12502 10.8334 8.12502Z" fill="#616161"/>
</svg>
